<svg width="305" height="84" viewBox="0 0 305 84" fill="none" xmlns="http://www.w3.org/2000/svg">
<path d="M42 84C65.196 84 84 65.196 84 42C84 18.804 65.196 0 42 0C18.804 0 0 18.804 0 42C0 65.196 18.804 84 42 84Z" fill="#171923"/>
<path d="M42 82C64.0914 82 82 64.0914 82 42C82 19.9086 64.0914 2 42 2C19.9086 2 2 19.9086 2 42C2 64.0914 19.9086 82 42 82Z" fill="url(#paint0_linear_1_2)"/>
<path fill-rule="evenodd" clip-rule="evenodd" d="M66.8 66.8C80.5 53.1 80.5 31 66.8 17.3C53.1 3.59999 31 3.59999 17.3 17.3C3.59999 31 3.59999 53.1 17.3 66.8C30.9 80.4 53.1 80.4 66.8 66.8ZM63.9 63.9C76 51.8 76 32.2 63.9 20.1C51.8 7.99999 32.2 7.99999 20.1 20.1C7.99999 32.2 7.99999 51.8 20.1 63.9C32.2 76 51.8 76 63.9 63.9Z" fill="#171923"/>
<mask id="path-4-outside-1_1_2" maskUnits="userSpaceOnUse" x="95" y="27" width="193" height="35" fill="black">
<rect fill="white" x="95" y="27" width="193" height="35"/>
<path d="M97.7474 59V29.1818H102.246V55.1271H115.758V59H97.7474ZM128.689 59.495C127.272 59.495 125.99 59.233 124.845 58.7088C123.7 58.175 122.792 57.4033 122.122 56.3938C121.462 55.3844 121.132 54.1468 121.132 52.6811C121.132 51.4193 121.375 50.3807 121.86 49.5653C122.346 48.75 123.001 48.1045 123.826 47.6289C124.651 47.1533 125.573 46.7942 126.592 46.5515C127.611 46.3088 128.65 46.1244 129.708 45.9982C131.047 45.8429 132.134 45.7167 132.969 45.6197C133.804 45.5129 134.411 45.343 134.789 45.1101C135.168 44.8771 135.357 44.4986 135.357 43.9744V43.8725C135.357 42.601 134.998 41.6158 134.28 40.9169C133.571 40.218 132.513 39.8686 131.106 39.8686C129.64 39.8686 128.485 40.1938 127.64 40.8441C126.806 41.4847 126.228 42.1982 125.908 42.9844L121.817 42.0526C122.302 40.6937 123.01 39.5968 123.942 38.7621C124.884 37.9176 125.966 37.3061 127.189 36.9276C128.412 36.5393 129.698 36.3452 131.047 36.3452C131.94 36.3452 132.887 36.4519 133.886 36.6655C134.896 36.8693 135.837 37.2479 136.711 37.8011C137.594 38.3544 138.317 39.1455 138.88 40.1744C139.443 41.1935 139.725 42.5185 139.725 44.1491V59H135.473V55.9425H135.299C135.017 56.5054 134.595 57.0587 134.032 57.6023C133.469 58.1458 132.746 58.5972 131.863 58.9563C130.979 59.3155 129.921 59.495 128.689 59.495ZM129.635 56.0007C130.839 56.0007 131.868 55.7629 132.722 55.2873C133.586 54.8117 134.241 54.1905 134.687 53.4237C135.143 52.6471 135.372 51.8172 135.372 50.9339V48.0511C135.216 48.2064 134.915 48.352 134.469 48.4879C134.032 48.6141 133.532 48.7257 132.969 48.8228C132.406 48.9102 131.858 48.9927 131.324 49.0703C130.79 49.1383 130.344 49.1965 129.984 49.245C129.14 49.3518 128.368 49.5314 127.669 49.7837C126.98 50.0361 126.427 50.4001 126.01 50.8757C125.602 51.3416 125.398 51.9628 125.398 52.7393C125.398 53.8168 125.796 54.6321 126.592 55.1854C127.388 55.7289 128.402 56.0007 129.635 56.0007ZM147.163 59V36.6364H151.371V40.1889H151.604C152.012 38.9853 152.73 38.0389 153.759 37.3498C154.797 36.6509 155.972 36.3015 157.282 36.3015C157.554 36.3015 157.874 36.3112 158.243 36.3306C158.622 36.35 158.918 36.3743 159.131 36.4034V40.5675C158.957 40.5189 158.646 40.4656 158.199 40.4073C157.753 40.3394 157.306 40.3054 156.86 40.3054C155.831 40.3054 154.914 40.5238 154.108 40.9606C153.312 41.3877 152.681 41.9846 152.215 42.7514C151.75 43.5085 151.517 44.3724 151.517 45.343V59H147.163ZM170.847 59.495C169.429 59.495 168.148 59.233 167.003 58.7088C165.857 58.175 164.95 57.4033 164.28 56.3938C163.62 55.3844 163.29 54.1468 163.29 52.6811C163.29 51.4193 163.533 50.3807 164.018 49.5653C164.503 48.75 165.159 48.1045 165.984 47.6289C166.809 47.1533 167.731 46.7942 168.75 46.5515C169.769 46.3088 170.808 46.1244 171.866 45.9982C173.205 45.8429 174.292 45.7167 175.127 45.6197C175.962 45.5129 176.569 45.343 176.947 45.1101C177.326 44.8771 177.515 44.4986 177.515 43.9744V43.8725C177.515 42.601 177.156 41.6158 176.438 40.9169C175.729 40.218 174.671 39.8686 173.263 39.8686C171.798 39.8686 170.643 40.1938 169.798 40.8441C168.964 41.4847 168.386 42.1982 168.066 42.9844L163.974 42.0526C164.46 40.6937 165.168 39.5968 166.1 38.7621C167.042 37.9176 168.124 37.3061 169.347 36.9276C170.57 36.5393 171.856 36.3452 173.205 36.3452C174.098 36.3452 175.045 36.4519 176.044 36.6655C177.054 36.8693 177.995 37.2479 178.869 37.8011C179.752 38.3544 180.475 39.1455 181.038 40.1744C181.601 41.1935 181.883 42.5185 181.883 44.1491V59H177.631V55.9425H177.457C177.175 56.5054 176.753 57.0587 176.19 57.6023C175.627 58.1458 174.904 58.5972 174.021 58.9563C173.137 59.3155 172.079 59.495 170.847 59.495ZM171.793 56.0007C172.997 56.0007 174.025 55.7629 174.88 55.2873C175.743 54.8117 176.399 54.1905 176.845 53.4237C177.301 52.6471 177.529 51.8172 177.529 50.9339V48.0511C177.374 48.2064 177.073 48.352 176.627 48.4879C176.19 48.6141 175.69 48.7257 175.127 48.8228C174.564 48.9102 174.016 48.9927 173.482 49.0703C172.948 49.1383 172.502 49.1965 172.142 49.245C171.298 49.3518 170.526 49.5314 169.827 49.7837C169.138 50.0361 168.585 50.4001 168.168 50.8757C167.76 51.3416 167.556 51.9628 167.556 52.7393C167.556 53.8168 167.954 54.6321 168.75 55.1854C169.546 55.7289 170.56 56.0007 171.793 56.0007ZM189.671 59V29.1818H200.59C202.706 29.1818 204.458 29.5312 205.846 30.2301C207.234 30.9193 208.273 31.8559 208.962 33.0401C209.651 34.2146 209.996 35.5395 209.996 37.0149C209.996 38.2573 209.768 39.3056 209.312 40.1598C208.855 41.0043 208.244 41.6837 207.477 42.1982C206.72 42.7029 205.885 43.0717 204.973 43.3047V43.5959C205.963 43.6444 206.929 43.9647 207.87 44.5568C208.821 45.1392 209.608 45.9691 210.229 47.0465C210.85 48.1239 211.161 49.4343 211.161 50.9776C211.161 52.5015 210.802 53.8701 210.083 55.0835C209.375 56.2871 208.278 57.2431 206.793 57.9517C205.308 58.6506 203.41 59 201.1 59H189.671ZM194.17 55.1417H200.663C202.818 55.1417 204.361 54.7243 205.293 53.8896C206.225 53.0548 206.691 52.0114 206.691 50.7592C206.691 49.8177 206.453 48.9538 205.977 48.1676C205.502 47.3814 204.822 46.7553 203.939 46.2894C203.066 45.8235 202.027 45.5906 200.823 45.5906H194.17V55.1417ZM194.17 42.0817H200.197C201.207 42.0817 202.114 41.8875 202.92 41.4993C203.735 41.111 204.381 40.5675 204.856 39.8686C205.342 39.16 205.584 38.3253 205.584 37.3643C205.584 36.1316 205.152 35.0979 204.289 34.2631C203.425 33.4284 202.1 33.011 200.314 33.011H194.17V42.0817ZM224.296 59.495C222.878 59.495 221.597 59.233 220.452 58.7088C219.306 58.175 218.399 57.4033 217.729 56.3938C217.069 55.3844 216.739 54.1468 216.739 52.6811C216.739 51.4193 216.982 50.3807 217.467 49.5653C217.952 48.75 218.608 48.1045 219.433 47.6289C220.258 47.1533 221.18 46.7942 222.199 46.5515C223.218 46.3088 224.257 46.1244 225.315 45.9982C226.654 45.8429 227.741 45.7167 228.576 45.6197C229.411 45.5129 230.017 45.343 230.396 45.1101C230.775 44.8771 230.964 44.4986 230.964 43.9744V43.8725C230.964 42.601 230.605 41.6158 229.886 40.9169C229.178 40.218 228.12 39.8686 226.712 39.8686C225.247 39.8686 224.092 40.1938 223.247 40.8441C222.412 41.4847 221.835 42.1982 221.515 42.9844L217.423 42.0526C217.909 40.6937 218.617 39.5968 219.549 38.7621C220.491 37.9176 221.573 37.3061 222.796 36.9276C224.019 36.5393 225.305 36.3452 226.654 36.3452C227.547 36.3452 228.494 36.4519 229.493 36.6655C230.503 36.8693 231.444 37.2479 232.318 37.8011C233.201 38.3544 233.924 39.1455 234.487 40.1744C235.05 41.1935 235.332 42.5185 235.332 44.1491V59H231.08V55.9425H230.906C230.624 56.5054 230.202 57.0587 229.639 57.6023C229.076 58.1458 228.353 58.5972 227.47 58.9563C226.586 59.3155 225.528 59.495 224.296 59.495ZM225.242 56.0007C226.446 56.0007 227.474 55.7629 228.329 55.2873C229.192 54.8117 229.848 54.1905 230.294 53.4237C230.75 52.6471 230.978 51.8172 230.978 50.9339V48.0511C230.823 48.2064 230.522 48.352 230.076 48.4879C229.639 48.6141 229.139 48.7257 228.576 48.8228C228.013 48.9102 227.465 48.9927 226.931 49.0703C226.397 49.1383 225.95 49.1965 225.591 49.245C224.747 49.3518 223.975 49.5314 223.276 49.7837C222.587 50.0361 222.034 50.4001 221.617 50.8757C221.209 51.3416 221.005 51.9628 221.005 52.7393C221.005 53.8168 221.403 54.6321 222.199 55.1854C222.995 55.7289 224.009 56.0007 225.242 56.0007ZM259.528 42.0962L255.583 42.7951C255.418 42.2904 255.156 41.8099 254.796 41.3537C254.447 40.8975 253.971 40.5238 253.37 40.2326C252.768 39.9414 252.016 39.7958 251.113 39.7958C249.88 39.7958 248.851 40.0724 248.026 40.6257C247.201 41.1693 246.789 41.873 246.789 42.7369C246.789 43.4843 247.065 44.0861 247.619 44.5423C248.172 44.9985 249.065 45.3722 250.297 45.6634L253.85 46.4787C255.908 46.9543 257.441 47.6871 258.451 48.6772C259.46 49.6673 259.965 50.9534 259.965 52.5355C259.965 53.875 259.577 55.0689 258.8 56.1172C258.034 57.1558 256.961 57.9711 255.583 58.5632C254.214 59.1553 252.627 59.4513 250.822 59.4513C248.317 59.4513 246.274 58.9175 244.692 57.8498C243.11 56.7724 242.139 55.2436 241.78 53.2635L245.988 52.6229C246.25 53.7197 246.789 54.5496 247.604 55.1126C248.419 55.6658 249.482 55.9425 250.793 55.9425C252.219 55.9425 253.36 55.6464 254.214 55.0543C255.068 54.4525 255.495 53.7197 255.495 52.8558C255.495 52.157 255.233 51.5697 254.709 51.0941C254.195 50.6185 253.404 50.2594 252.336 50.0167L248.55 49.1868C246.463 48.7112 244.92 47.9541 243.92 46.9155C242.93 45.8769 242.435 44.5617 242.435 42.9698C242.435 41.6497 242.804 40.4947 243.542 39.5046C244.28 38.5146 245.299 37.7429 246.599 37.1896C247.9 36.6267 249.39 36.3452 251.069 36.3452C253.486 36.3452 255.389 36.8693 256.777 37.9176C258.165 38.9562 259.082 40.3491 259.528 42.0962ZM276.03 59.4513C273.827 59.4513 271.929 58.9806 270.337 58.0391C268.755 57.0878 267.532 55.7532 266.668 54.0352C265.814 52.3074 265.387 50.2836 265.387 47.9638C265.387 45.6731 265.814 43.6541 266.668 41.907C267.532 40.1598 268.736 38.796 270.279 37.8157C271.832 36.8353 273.647 36.3452 275.724 36.3452C276.986 36.3452 278.209 36.5539 279.393 36.9712C280.578 37.3886 281.64 38.0438 282.582 38.9368C283.523 39.8298 284.266 40.9897 284.81 42.4165C285.353 43.8337 285.625 45.5566 285.625 47.5852V49.1286H267.848V45.8672H281.359C281.359 44.7218 281.126 43.7075 280.66 42.8242C280.194 41.9312 279.539 41.2275 278.694 40.7131C277.86 40.1986 276.879 39.9414 275.753 39.9414C274.53 39.9414 273.463 40.2423 272.55 40.8441C271.648 41.4362 270.949 42.2127 270.454 43.1737C269.968 44.1249 269.726 45.1586 269.726 46.2749V48.8228C269.726 50.3176 269.988 51.5891 270.512 52.6374C271.046 53.6857 271.788 54.4865 272.74 55.0398C273.691 55.5833 274.802 55.8551 276.074 55.8551C276.899 55.8551 277.651 55.7386 278.331 55.5057C279.01 55.263 279.597 54.9039 280.092 54.4283C280.587 53.9527 280.966 53.3654 281.228 52.6665L285.348 53.4091C285.018 54.6224 284.426 55.6853 283.572 56.5977C282.728 57.5004 281.665 58.2041 280.383 58.7088C279.112 59.2038 277.661 59.4513 276.03 59.4513Z"/>
</mask>
<path d="M97.7474 59V29.1818H102.246V55.1271H115.758V59H97.7474ZM128.689 59.495C127.272 59.495 125.99 59.233 124.845 58.7088C123.7 58.175 122.792 57.4033 122.122 56.3938C121.462 55.3844 121.132 54.1468 121.132 52.6811C121.132 51.4193 121.375 50.3807 121.86 49.5653C122.346 48.75 123.001 48.1045 123.826 47.6289C124.651 47.1533 125.573 46.7942 126.592 46.5515C127.611 46.3088 128.65 46.1244 129.708 45.9982C131.047 45.8429 132.134 45.7167 132.969 45.6197C133.804 45.5129 134.411 45.343 134.789 45.1101C135.168 44.8771 135.357 44.4986 135.357 43.9744V43.8725C135.357 42.601 134.998 41.6158 134.28 40.9169C133.571 40.218 132.513 39.8686 131.106 39.8686C129.64 39.8686 128.485 40.1938 127.64 40.8441C126.806 41.4847 126.228 42.1982 125.908 42.9844L121.817 42.0526C122.302 40.6937 123.01 39.5968 123.942 38.7621C124.884 37.9176 125.966 37.3061 127.189 36.9276C128.412 36.5393 129.698 36.3452 131.047 36.3452C131.94 36.3452 132.887 36.4519 133.886 36.6655C134.896 36.8693 135.837 37.2479 136.711 37.8011C137.594 38.3544 138.317 39.1455 138.88 40.1744C139.443 41.1935 139.725 42.5185 139.725 44.1491V59H135.473V55.9425H135.299C135.017 56.5054 134.595 57.0587 134.032 57.6023C133.469 58.1458 132.746 58.5972 131.863 58.9563C130.979 59.3155 129.921 59.495 128.689 59.495ZM129.635 56.0007C130.839 56.0007 131.868 55.7629 132.722 55.2873C133.586 54.8117 134.241 54.1905 134.687 53.4237C135.143 52.6471 135.372 51.8172 135.372 50.9339V48.0511C135.216 48.2064 134.915 48.352 134.469 48.4879C134.032 48.6141 133.532 48.7257 132.969 48.8228C132.406 48.9102 131.858 48.9927 131.324 49.0703C130.79 49.1383 130.344 49.1965 129.984 49.245C129.14 49.3518 128.368 49.5314 127.669 49.7837C126.98 50.0361 126.427 50.4001 126.01 50.8757C125.602 51.3416 125.398 51.9628 125.398 52.7393C125.398 53.8168 125.796 54.6321 126.592 55.1854C127.388 55.7289 128.402 56.0007 129.635 56.0007ZM147.163 59V36.6364H151.371V40.1889H151.604C152.012 38.9853 152.73 38.0389 153.759 37.3498C154.797 36.6509 155.972 36.3015 157.282 36.3015C157.554 36.3015 157.874 36.3112 158.243 36.3306C158.622 36.35 158.918 36.3743 159.131 36.4034V40.5675C158.957 40.5189 158.646 40.4656 158.199 40.4073C157.753 40.3394 157.306 40.3054 156.86 40.3054C155.831 40.3054 154.914 40.5238 154.108 40.9606C153.312 41.3877 152.681 41.9846 152.215 42.7514C151.75 43.5085 151.517 44.3724 151.517 45.343V59H147.163ZM170.847 59.495C169.429 59.495 168.148 59.233 167.003 58.7088C165.857 58.175 164.95 57.4033 164.28 56.3938C163.62 55.3844 163.29 54.1468 163.29 52.6811C163.29 51.4193 163.533 50.3807 164.018 49.5653C164.503 48.75 165.159 48.1045 165.984 47.6289C166.809 47.1533 167.731 46.7942 168.75 46.5515C169.769 46.3088 170.808 46.1244 171.866 45.9982C173.205 45.8429 174.292 45.7167 175.127 45.6197C175.962 45.5129 176.569 45.343 176.947 45.1101C177.326 44.8771 177.515 44.4986 177.515 43.9744V43.8725C177.515 42.601 177.156 41.6158 176.438 40.9169C175.729 40.218 174.671 39.8686 173.263 39.8686C171.798 39.8686 170.643 40.1938 169.798 40.8441C168.964 41.4847 168.386 42.1982 168.066 42.9844L163.974 42.0526C164.46 40.6937 165.168 39.5968 166.1 38.7621C167.042 37.9176 168.124 37.3061 169.347 36.9276C170.57 36.5393 171.856 36.3452 173.205 36.3452C174.098 36.3452 175.045 36.4519 176.044 36.6655C177.054 36.8693 177.995 37.2479 178.869 37.8011C179.752 38.3544 180.475 39.1455 181.038 40.1744C181.601 41.1935 181.883 42.5185 181.883 44.1491V59H177.631V55.9425H177.457C177.175 56.5054 176.753 57.0587 176.19 57.6023C175.627 58.1458 174.904 58.5972 174.021 58.9563C173.137 59.3155 172.079 59.495 170.847 59.495ZM171.793 56.0007C172.997 56.0007 174.025 55.7629 174.88 55.2873C175.743 54.8117 176.399 54.1905 176.845 53.4237C177.301 52.6471 177.529 51.8172 177.529 50.9339V48.0511C177.374 48.2064 177.073 48.352 176.627 48.4879C176.19 48.6141 175.69 48.7257 175.127 48.8228C174.564 48.9102 174.016 48.9927 173.482 49.0703C172.948 49.1383 172.502 49.1965 172.142 49.245C171.298 49.3518 170.526 49.5314 169.827 49.7837C169.138 50.0361 168.585 50.4001 168.168 50.8757C167.76 51.3416 167.556 51.9628 167.556 52.7393C167.556 53.8168 167.954 54.6321 168.75 55.1854C169.546 55.7289 170.56 56.0007 171.793 56.0007ZM189.671 59V29.1818H200.59C202.706 29.1818 204.458 29.5312 205.846 30.2301C207.234 30.9193 208.273 31.8559 208.962 33.0401C209.651 34.2146 209.996 35.5395 209.996 37.0149C209.996 38.2573 209.768 39.3056 209.312 40.1598C208.855 41.0043 208.244 41.6837 207.477 42.1982C206.72 42.7029 205.885 43.0717 204.973 43.3047V43.5959C205.963 43.6444 206.929 43.9647 207.87 44.5568C208.821 45.1392 209.608 45.9691 210.229 47.0465C210.85 48.1239 211.161 49.4343 211.161 50.9776C211.161 52.5015 210.802 53.8701 210.083 55.0835C209.375 56.2871 208.278 57.2431 206.793 57.9517C205.308 58.6506 203.41 59 201.1 59H189.671ZM194.17 55.1417H200.663C202.818 55.1417 204.361 54.7243 205.293 53.8896C206.225 53.0548 206.691 52.0114 206.691 50.7592C206.691 49.8177 206.453 48.9538 205.977 48.1676C205.502 47.3814 204.822 46.7553 203.939 46.2894C203.066 45.8235 202.027 45.5906 200.823 45.5906H194.17V55.1417ZM194.17 42.0817H200.197C201.207 42.0817 202.114 41.8875 202.92 41.4993C203.735 41.111 204.381 40.5675 204.856 39.8686C205.342 39.16 205.584 38.3253 205.584 37.3643C205.584 36.1316 205.152 35.0979 204.289 34.2631C203.425 33.4284 202.1 33.011 200.314 33.011H194.17V42.0817ZM224.296 59.495C222.878 59.495 221.597 59.233 220.452 58.7088C219.306 58.175 218.399 57.4033 217.729 56.3938C217.069 55.3844 216.739 54.1468 216.739 52.6811C216.739 51.4193 216.982 50.3807 217.467 49.5653C217.952 48.75 218.608 48.1045 219.433 47.6289C220.258 47.1533 221.18 46.7942 222.199 46.5515C223.218 46.3088 224.257 46.1244 225.315 45.9982C226.654 45.8429 227.741 45.7167 228.576 45.6197C229.411 45.5129 230.017 45.343 230.396 45.1101C230.775 44.8771 230.964 44.4986 230.964 43.9744V43.8725C230.964 42.601 230.605 41.6158 229.886 40.9169C229.178 40.218 228.12 39.8686 226.712 39.8686C225.247 39.8686 224.092 40.1938 223.247 40.8441C222.412 41.4847 221.835 42.1982 221.515 42.9844L217.423 42.0526C217.909 40.6937 218.617 39.5968 219.549 38.7621C220.491 37.9176 221.573 37.3061 222.796 36.9276C224.019 36.5393 225.305 36.3452 226.654 36.3452C227.547 36.3452 228.494 36.4519 229.493 36.6655C230.503 36.8693 231.444 37.2479 232.318 37.8011C233.201 38.3544 233.924 39.1455 234.487 40.1744C235.05 41.1935 235.332 42.5185 235.332 44.1491V59H231.08V55.9425H230.906C230.624 56.5054 230.202 57.0587 229.639 57.6023C229.076 58.1458 228.353 58.5972 227.47 58.9563C226.586 59.3155 225.528 59.495 224.296 59.495ZM225.242 56.0007C226.446 56.0007 227.474 55.7629 228.329 55.2873C229.192 54.8117 229.848 54.1905 230.294 53.4237C230.75 52.6471 230.978 51.8172 230.978 50.9339V48.0511C230.823 48.2064 230.522 48.352 230.076 48.4879C229.639 48.6141 229.139 48.7257 228.576 48.8228C228.013 48.9102 227.465 48.9927 226.931 49.0703C226.397 49.1383 225.95 49.1965 225.591 49.245C224.747 49.3518 223.975 49.5314 223.276 49.7837C222.587 50.0361 222.034 50.4001 221.617 50.8757C221.209 51.3416 221.005 51.9628 221.005 52.7393C221.005 53.8168 221.403 54.6321 222.199 55.1854C222.995 55.7289 224.009 56.0007 225.242 56.0007ZM259.528 42.0962L255.583 42.7951C255.418 42.2904 255.156 41.8099 254.796 41.3537C254.447 40.8975 253.971 40.5238 253.37 40.2326C252.768 39.9414 252.016 39.7958 251.113 39.7958C249.88 39.7958 248.851 40.0724 248.026 40.6257C247.201 41.1693 246.789 41.873 246.789 42.7369C246.789 43.4843 247.065 44.0861 247.619 44.5423C248.172 44.9985 249.065 45.3722 250.297 45.6634L253.85 46.4787C255.908 46.9543 257.441 47.6871 258.451 48.6772C259.46 49.6673 259.965 50.9534 259.965 52.5355C259.965 53.875 259.577 55.0689 258.8 56.1172C258.034 57.1558 256.961 57.9711 255.583 58.5632C254.214 59.1553 252.627 59.4513 250.822 59.4513C248.317 59.4513 246.274 58.9175 244.692 57.8498C243.11 56.7724 242.139 55.2436 241.78 53.2635L245.988 52.6229C246.25 53.7197 246.789 54.5496 247.604 55.1126C248.419 55.6658 249.482 55.9425 250.793 55.9425C252.219 55.9425 253.36 55.6464 254.214 55.0543C255.068 54.4525 255.495 53.7197 255.495 52.8558C255.495 52.157 255.233 51.5697 254.709 51.0941C254.195 50.6185 253.404 50.2594 252.336 50.0167L248.55 49.1868C246.463 48.7112 244.92 47.9541 243.92 46.9155C242.93 45.8769 242.435 44.5617 242.435 42.9698C242.435 41.6497 242.804 40.4947 243.542 39.5046C244.28 38.5146 245.299 37.7429 246.599 37.1896C247.9 36.6267 249.39 36.3452 251.069 36.3452C253.486 36.3452 255.389 36.8693 256.777 37.9176C258.165 38.9562 259.082 40.3491 259.528 42.0962ZM276.03 59.4513C273.827 59.4513 271.929 58.9806 270.337 58.0391C268.755 57.0878 267.532 55.7532 266.668 54.0352C265.814 52.3074 265.387 50.2836 265.387 47.9638C265.387 45.6731 265.814 43.6541 266.668 41.907C267.532 40.1598 268.736 38.796 270.279 37.8157C271.832 36.8353 273.647 36.3452 275.724 36.3452C276.986 36.3452 278.209 36.5539 279.393 36.9712C280.578 37.3886 281.64 38.0438 282.582 38.9368C283.523 39.8298 284.266 40.9897 284.81 42.4165C285.353 43.8337 285.625 45.5566 285.625 47.5852V49.1286H267.848V45.8672H281.359C281.359 44.7218 281.126 43.7075 280.66 42.8242C280.194 41.9312 279.539 41.2275 278.694 40.7131C277.86 40.1986 276.879 39.9414 275.753 39.9414C274.53 39.9414 273.463 40.2423 272.55 40.8441C271.648 41.4362 270.949 42.2127 270.454 43.1737C269.968 44.1249 269.726 45.1586 269.726 46.2749V48.8228C269.726 50.3176 269.988 51.5891 270.512 52.6374C271.046 53.6857 271.788 54.4865 272.74 55.0398C273.691 55.5833 274.802 55.8551 276.074 55.8551C276.899 55.8551 277.651 55.7386 278.331 55.5057C279.01 55.263 279.597 54.9039 280.092 54.4283C280.587 53.9527 280.966 53.3654 281.228 52.6665L285.348 53.4091C285.018 54.6224 284.426 55.6853 283.572 56.5977C282.728 57.5004 281.665 58.2041 280.383 58.7088C279.112 59.2038 277.661 59.4513 276.03 59.4513Z" fill="#2E2E2E"/>
<path d="M97.7474 59H95.7474V61H97.7474V59ZM97.7474 29.1818V27.1818H95.7474V29.1818H97.7474ZM102.246 29.1818H104.246V27.1818H102.246V29.1818ZM102.246 55.1271H100.246V57.1271H102.246V55.1271ZM115.758 55.1271H117.758V53.1271H115.758V55.1271ZM115.758 59V61H117.758V59H115.758ZM99.7474 59V29.1818H95.7474V59H99.7474ZM97.7474 31.1818H102.246V27.1818H97.7474V31.1818ZM100.246 29.1818V55.1271H104.246V29.1818H100.246ZM102.246 57.1271H115.758V53.1271H102.246V57.1271ZM113.758 55.1271V59H117.758V55.1271H113.758ZM115.758 57H97.7474V61H115.758V57ZM124.845 58.7088L124 60.5216L124.013 60.5274L124.845 58.7088ZM122.122 56.3938L120.448 57.4883L120.456 57.4995L122.122 56.3938ZM121.86 49.5653L123.579 50.5883L123.579 50.5883L121.86 49.5653ZM123.826 47.6289L124.825 49.3616L124.825 49.3616L123.826 47.6289ZM129.708 45.9982L129.477 44.0115L129.471 44.0123L129.708 45.9982ZM132.969 45.6197L133.2 47.6063L133.212 47.605L133.223 47.6035L132.969 45.6197ZM134.789 45.1101L135.837 46.8134L135.837 46.8134L134.789 45.1101ZM134.28 40.9169L132.875 42.3409L132.885 42.3504L134.28 40.9169ZM127.64 40.8441L128.858 42.4307L128.861 42.4287L127.64 40.8441ZM125.908 42.9844L125.464 44.9344L127.119 45.3115L127.76 43.739L125.908 42.9844ZM121.817 42.0526L119.933 41.3799L119.175 43.5022L121.372 44.0026L121.817 42.0526ZM123.942 38.7621L125.277 40.2517L125.278 40.2509L123.942 38.7621ZM127.189 36.9276L127.78 38.8381L127.787 38.836L127.794 38.8338L127.189 36.9276ZM133.886 36.6655L133.469 38.6214L133.48 38.6237L133.491 38.6259L133.886 36.6655ZM136.711 37.8011L135.641 39.4908L135.649 39.4961L136.711 37.8011ZM138.88 40.1744L137.126 41.1344L137.13 41.1414L138.88 40.1744ZM139.725 59V61H141.725V59H139.725ZM135.473 59H133.473V61H135.473V59ZM135.473 55.9425H137.473V53.9425H135.473V55.9425ZM135.299 55.9425V53.9425H134.063L133.51 55.048L135.299 55.9425ZM134.032 57.6023L132.643 56.1635L132.643 56.1635L134.032 57.6023ZM131.863 58.9563L131.109 57.1036L131.863 58.9563ZM132.722 55.2873L131.757 53.5353L131.749 53.5399L132.722 55.2873ZM134.687 53.4237L132.963 52.4105L132.959 52.4173L134.687 53.4237ZM135.372 48.0511H137.372V43.2227L133.957 46.6369L135.372 48.0511ZM134.469 48.4879L135.024 50.4094L135.038 50.4054L135.051 50.4013L134.469 48.4879ZM132.969 48.8228L133.276 50.7991L133.292 50.7966L133.309 50.7937L132.969 48.8228ZM131.324 49.0703L131.576 51.0543L131.594 51.0521L131.612 51.0495L131.324 49.0703ZM129.984 49.245L130.235 51.2292L130.244 51.2282L130.252 51.227L129.984 49.245ZM127.669 49.7837L126.99 47.9026L126.982 47.9057L127.669 49.7837ZM126.01 50.8757L124.506 49.5565L124.505 49.5587L126.01 50.8757ZM126.592 55.1854L125.451 56.8276L125.457 56.8323L125.464 56.837L126.592 55.1854ZM128.689 57.495C127.523 57.495 126.53 57.2807 125.677 56.8902L124.013 60.5274C125.45 61.1852 127.02 61.495 128.689 61.495V57.495ZM125.69 56.896C124.863 56.5107 124.246 55.9772 123.789 55.2881L120.456 57.4995C121.338 58.8294 122.536 59.8392 124 60.5216L125.69 56.896ZM123.796 55.2993C123.391 54.6793 123.132 53.8424 123.132 52.6811H119.132C119.132 54.4511 119.534 56.0894 120.448 57.4883L123.796 55.2993ZM123.132 52.6811C123.132 51.6641 123.329 51.0083 123.579 50.5883L120.142 48.5424C119.421 49.7531 119.132 51.1744 119.132 52.6811H123.132ZM123.579 50.5883C123.888 50.0684 124.295 49.6668 124.825 49.3616L122.827 45.8962C121.706 46.5422 120.803 47.4316 120.142 48.5424L123.579 50.5883ZM124.825 49.3616C125.466 48.9916 126.205 48.6995 127.055 48.4971L126.129 44.6059C124.94 44.8888 123.835 45.315 122.827 45.8962L124.825 49.3616ZM127.055 48.4971C127.999 48.2725 128.962 48.1014 129.945 47.9841L129.471 44.0123C128.338 44.1474 127.224 44.3452 126.129 44.6059L127.055 48.4971ZM129.938 47.9849C131.278 47.8296 132.365 47.7034 133.2 47.6063L132.738 43.6331C131.904 43.7301 130.817 43.8562 129.477 44.0115L129.938 47.9849ZM133.223 47.6035C134.132 47.4872 135.086 47.2755 135.837 46.8134L133.741 43.4068C133.761 43.3945 133.703 43.4324 133.511 43.4863C133.326 43.538 133.066 43.591 132.715 43.6358L133.223 47.6035ZM135.837 46.8134C136.922 46.146 137.357 45.0471 137.357 43.9744H133.357C133.357 43.9986 133.353 43.9038 133.426 43.757C133.507 43.5958 133.629 43.4754 133.741 43.4068L135.837 46.8134ZM137.357 43.9744V43.8725H133.357V43.9744H137.357ZM137.357 43.8725C137.357 42.2142 136.877 40.6537 135.674 39.4835L132.885 42.3504C133.119 42.5778 133.357 42.9877 133.357 43.8725H137.357ZM135.684 39.493C134.469 38.2951 132.819 37.8686 131.106 37.8686V41.8686C132.207 41.8686 132.673 42.141 132.875 42.3408L135.684 39.493ZM131.106 37.8686C129.362 37.8686 127.725 38.2548 126.42 39.2595L128.861 42.4287C129.245 42.1327 129.918 41.8686 131.106 41.8686V37.8686ZM126.423 39.2575C125.373 40.0629 124.538 41.0447 124.056 42.2298L127.76 43.739C127.918 43.3516 128.238 42.9066 128.858 42.4307L126.423 39.2575ZM126.352 41.0343L122.261 40.1025L121.372 44.0026L125.464 44.9344L126.352 41.0343ZM123.7 42.7252C124.091 41.6316 124.629 40.8321 125.277 40.2517L122.608 37.2724C121.392 38.3615 120.513 39.7557 119.933 41.3799L123.7 42.7252ZM125.278 40.2509C126.002 39.6015 126.829 39.1325 127.78 38.8381L126.598 35.017C125.103 35.4797 123.766 36.2337 122.607 37.2732L125.278 40.2509ZM127.794 38.8338C128.812 38.5108 129.893 38.3452 131.047 38.3452V34.3452C129.503 34.3452 128.012 34.5678 126.584 35.0213L127.794 38.8338ZM131.047 38.3452C131.781 38.3452 132.587 38.433 133.469 38.6214L134.304 34.7096C133.186 34.4709 132.099 34.3452 131.047 34.3452V38.3452ZM133.491 38.6259C134.26 38.7812 134.973 39.0676 135.641 39.4908L137.781 36.1115C136.702 35.4281 135.532 34.9574 134.282 34.7051L133.491 38.6259ZM135.649 39.4961C136.208 39.8458 136.706 40.3674 137.126 41.1344L140.635 39.2143C139.929 37.9235 138.981 36.863 137.773 36.1062L135.649 39.4961ZM137.13 41.1414C137.477 41.7695 137.725 42.7285 137.725 44.1491H141.725C141.725 42.3085 141.41 40.6175 140.631 39.2073L137.13 41.1414ZM137.725 44.1491V59H141.725V44.1491H137.725ZM139.725 57H135.473V61H139.725V57ZM137.473 59V55.9425H133.473V59H137.473ZM135.473 53.9425H135.299V57.9425H135.473V53.9425ZM133.51 55.048C133.351 55.3657 133.081 55.7406 132.643 56.1635L135.421 59.0411C136.109 58.3768 136.683 57.6452 137.088 56.8369L133.51 55.048ZM132.643 56.1635C132.299 56.4956 131.806 56.8202 131.109 57.1036L132.616 60.809C133.685 60.3742 134.639 59.796 135.421 59.0411L132.643 56.1635ZM131.109 57.1036C130.524 57.3416 129.735 57.495 128.689 57.495V61.495C130.107 61.495 131.435 61.2894 132.616 60.809L131.109 57.1036ZM129.635 58.0007C131.101 58.0007 132.482 57.7101 133.695 57.0347L131.749 53.5399C131.253 53.8157 130.576 54.0007 129.635 54.0007V58.0007ZM133.686 57.0393C134.831 56.4089 135.767 55.544 136.416 54.43L132.959 52.4173C132.715 52.8369 132.34 53.2144 131.757 53.5353L133.686 57.0393ZM136.412 54.4367C137.045 53.3594 137.372 52.1807 137.372 50.9339H133.372C133.372 51.4538 133.242 51.9348 132.963 52.4106L136.412 54.4367ZM137.372 50.9339V48.0511H133.372V50.9339H137.372ZM133.957 46.6369C133.997 46.5978 134.032 46.5675 134.06 46.5453C134.087 46.5229 134.111 46.5068 134.127 46.4962C134.157 46.4759 134.171 46.4704 134.158 46.4765C134.147 46.4822 134.119 46.4947 134.072 46.5125C134.025 46.5302 133.964 46.5511 133.887 46.5746L135.051 50.4013C135.534 50.2544 136.255 49.9957 136.786 49.4653L133.957 46.6369ZM133.914 46.5665C133.563 46.6678 133.137 46.7643 132.629 46.8519L133.309 50.7937C133.927 50.6871 134.501 50.5604 135.024 50.4094L133.914 46.5665ZM132.663 46.8465C132.105 46.9329 131.563 47.0144 131.036 47.0911L131.612 51.0495C132.152 50.9709 132.707 50.8874 133.276 50.7991L132.663 46.8465ZM131.071 47.0863C130.535 47.1546 130.083 47.2136 129.717 47.263L130.252 51.227C130.605 51.1794 131.046 51.1219 131.576 51.0543L131.071 47.0863ZM129.734 47.2608C128.764 47.3835 127.846 47.5936 126.99 47.9026L128.349 51.6648C128.891 51.4691 129.516 51.3201 130.235 51.2292L129.734 47.2608ZM126.982 47.9057C126.029 48.2547 125.178 48.7917 124.506 49.5565L127.513 52.1949C127.677 52.0085 127.932 51.8176 128.357 51.6618L126.982 47.9057ZM124.505 49.5587C123.703 50.4749 123.398 51.6058 123.398 52.7393H127.398C127.398 52.3198 127.501 52.2084 127.515 52.1927L124.505 49.5587ZM123.398 52.7393C123.398 54.3865 124.05 55.8544 125.451 56.8276L127.734 53.5432C127.542 53.4098 127.398 53.247 127.398 52.7393H123.398ZM125.464 56.837C126.674 57.6633 128.112 58.0007 129.635 58.0007V54.0007C128.693 54.0007 128.102 53.7945 127.72 53.5338L125.464 56.837ZM147.163 59H145.163V61H147.163V59ZM147.163 36.6364V34.6364H145.163V36.6364H147.163ZM151.371 36.6364H153.371V34.6364H151.371V36.6364ZM151.371 40.1889H149.371V42.1889H151.371V40.1889ZM151.604 40.1889V42.1889H153.038L153.498 40.8305L151.604 40.1889ZM153.759 37.3498L154.872 39.0115L154.875 39.0091L153.759 37.3498ZM158.243 36.3306L158.138 38.3278L158.141 38.328L158.243 36.3306ZM159.131 36.4034H161.131V34.6576L159.402 34.4217L159.131 36.4034ZM159.131 40.5675L158.596 42.4945L161.131 43.1988V40.5675H159.131ZM158.199 40.4073L157.899 42.3846L157.92 42.3878L157.941 42.3905L158.199 40.4073ZM154.108 40.9606L155.054 42.7229L155.061 42.7188L154.108 40.9606ZM152.215 42.7514L153.919 43.7996L153.925 43.7899L152.215 42.7514ZM151.517 59V61H153.517V59H151.517ZM149.163 59V36.6364H145.163V59H149.163ZM147.163 38.6364H151.371V34.6364H147.163V38.6364ZM149.371 36.6364V40.1889H153.371V36.6364H149.371ZM151.371 42.1889H151.604V38.1889H151.371V42.1889ZM153.498 40.8305C153.769 40.0319 154.219 39.449 154.872 39.0115L152.646 35.6881C151.241 36.6289 150.255 37.9388 149.71 39.5473L153.498 40.8305ZM154.875 39.0091C155.568 38.543 156.35 38.3015 157.282 38.3015V34.3015C155.594 34.3015 154.027 34.7588 152.642 35.6905L154.875 39.0091ZM157.282 38.3015C157.509 38.3015 157.793 38.3097 158.138 38.3278L158.348 34.3334C157.956 34.3127 157.599 34.3015 157.282 34.3015V38.3015ZM158.141 38.328C158.498 38.3463 158.73 38.3671 158.861 38.3851L159.402 34.4217C159.106 34.3814 158.745 34.3537 158.346 34.3332L158.141 38.328ZM157.131 36.4034V40.5675H161.131V36.4034H157.131ZM159.667 38.6404C159.34 38.5497 158.901 38.4819 158.458 38.4241L157.941 42.3905C158.148 42.4175 158.308 42.4415 158.429 42.4621C158.558 42.4844 158.604 42.4966 158.596 42.4945L159.667 38.6404ZM158.5 38.4301C157.955 38.3472 157.408 38.3054 156.86 38.3054V42.3054C157.205 42.3054 157.551 42.3316 157.899 42.3846L158.5 38.4301ZM156.86 38.3054C155.54 38.3054 154.288 38.5882 153.155 39.2024L155.061 42.7188C155.54 42.4594 156.123 42.3054 156.86 42.3054V38.3054ZM153.163 39.1983C152.054 39.7929 151.159 40.6388 150.506 41.7129L153.925 43.7899C154.204 43.3304 154.57 42.9824 155.054 42.7229L153.163 39.1983ZM150.512 41.7032C149.835 42.8042 149.517 44.0375 149.517 45.343H153.517C153.517 44.7073 153.665 44.2128 153.919 43.7996L150.512 41.7032ZM149.517 45.343V59H153.517V45.343H149.517ZM151.517 57H147.163V61H151.517V57ZM167.003 58.7088L166.158 60.5216L166.171 60.5274L167.003 58.7088ZM164.28 56.3938L162.606 57.4883L162.614 57.4995L164.28 56.3938ZM164.018 49.5653L165.737 50.5883L165.737 50.5883L164.018 49.5653ZM165.984 47.6289L166.983 49.3616L166.983 49.3616L165.984 47.6289ZM171.866 45.9982L171.635 44.0115L171.629 44.0123L171.866 45.9982ZM175.127 45.6197L175.358 47.6063L175.37 47.605L175.381 47.6035L175.127 45.6197ZM176.947 45.1101L177.995 46.8134L177.995 46.8134L176.947 45.1101ZM176.438 40.9169L175.033 42.3409L175.043 42.3504L176.438 40.9169ZM169.798 40.8441L171.016 42.4307L171.019 42.4287L169.798 40.8441ZM168.066 42.9844L167.622 44.9344L169.277 45.3115L169.918 43.739L168.066 42.9844ZM163.974 42.0526L162.091 41.3799L161.333 43.5022L163.53 44.0026L163.974 42.0526ZM166.1 38.7621L167.435 40.2517L167.436 40.2509L166.1 38.7621ZM169.347 36.9276L169.938 38.8381L169.945 38.836L169.952 38.8338L169.347 36.9276ZM176.044 36.6655L175.627 38.6214L175.638 38.6237L175.649 38.6259L176.044 36.6655ZM178.869 37.8011L177.799 39.4908L177.807 39.4961L178.869 37.8011ZM181.038 40.1744L179.284 41.1344L179.288 41.1414L181.038 40.1744ZM181.883 59V61H183.883V59H181.883ZM177.631 59H175.631V61H177.631V59ZM177.631 55.9425H179.631V53.9425H177.631V55.9425ZM177.457 55.9425V53.9425H176.221L175.668 55.048L177.457 55.9425ZM176.19 57.6023L174.801 56.1635L174.801 56.1635L176.19 57.6023ZM174.021 58.9563L173.267 57.1036L174.021 58.9563ZM174.88 55.2873L173.915 53.5353L173.907 53.5399L174.88 55.2873ZM176.845 53.4237L175.121 52.4105L175.117 52.4173L176.845 53.4237ZM177.529 48.0511H179.529V43.2227L176.115 46.6369L177.529 48.0511ZM176.627 48.4879L177.182 50.4094L177.196 50.4054L177.209 50.4013L176.627 48.4879ZM175.127 48.8228L175.434 50.7991L175.45 50.7966L175.467 50.7937L175.127 48.8228ZM173.482 49.0703L173.734 51.0543L173.752 51.0521L173.77 51.0495L173.482 49.0703ZM172.142 49.245L172.393 51.2292L172.402 51.2282L172.41 51.227L172.142 49.245ZM169.827 49.7837L169.148 47.9026L169.14 47.9057L169.827 49.7837ZM168.168 50.8757L166.664 49.5565L166.662 49.5587L168.168 50.8757ZM168.75 55.1854L167.608 56.8276L167.615 56.8323L167.622 56.837L168.75 55.1854ZM170.847 57.495C169.681 57.495 168.688 57.2807 167.835 56.8902L166.171 60.5274C167.608 61.1852 169.178 61.495 170.847 61.495V57.495ZM167.848 56.896C167.021 56.5107 166.404 55.9772 165.947 55.2881L162.614 57.4995C163.496 58.8294 164.694 59.8392 166.158 60.5216L167.848 56.896ZM165.954 55.2993C165.549 54.6793 165.29 53.8424 165.29 52.6811H161.29C161.29 54.4511 161.692 56.0894 162.606 57.4883L165.954 55.2993ZM165.29 52.6811C165.29 51.6641 165.487 51.0083 165.737 50.5883L162.3 48.5424C161.579 49.7531 161.29 51.1744 161.29 52.6811H165.29ZM165.737 50.5883C166.046 50.0684 166.453 49.6668 166.983 49.3616L164.985 45.8962C163.864 46.5422 162.961 47.4316 162.3 48.5424L165.737 50.5883ZM166.983 49.3616C167.624 48.9916 168.363 48.6995 169.213 48.4971L168.287 44.6059C167.098 44.8888 165.993 45.315 164.985 45.8962L166.983 49.3616ZM169.213 48.4971C170.157 48.2725 171.12 48.1014 172.103 47.9841L171.629 44.0123C170.496 44.1474 169.382 44.3452 168.287 44.6059L169.213 48.4971ZM172.096 47.9849C173.436 47.8296 174.523 47.7034 175.358 47.6063L174.896 43.6331C174.062 43.7301 172.975 43.8562 171.635 44.0115L172.096 47.9849ZM175.381 47.6035C176.29 47.4872 177.244 47.2755 177.995 46.8134L175.899 43.4068C175.919 43.3945 175.861 43.4324 175.669 43.4863C175.484 43.538 175.224 43.591 174.873 43.6358L175.381 47.6035ZM177.995 46.8134C179.08 46.146 179.515 45.0471 179.515 43.9744H175.515C175.515 43.9986 175.511 43.9038 175.584 43.757C175.665 43.5958 175.787 43.4754 175.899 43.4068L177.995 46.8134ZM179.515 43.9744V43.8725H175.515V43.9744H179.515ZM179.515 43.8725C179.515 42.2142 179.035 40.6537 177.832 39.4835L175.043 42.3504C175.277 42.5778 175.515 42.9877 175.515 43.8725H179.515ZM177.842 39.493C176.627 38.2951 174.977 37.8686 173.263 37.8686V41.8686C174.365 41.8686 174.83 42.141 175.033 42.3408L177.842 39.493ZM173.263 37.8686C171.52 37.8686 169.883 38.2548 168.578 39.2595L171.019 42.4287C171.403 42.1327 172.076 41.8686 173.263 41.8686V37.8686ZM168.581 39.2575C167.531 40.0629 166.696 41.0447 166.214 42.2298L169.918 43.739C170.076 43.3516 170.396 42.9066 171.016 42.4307L168.581 39.2575ZM168.51 41.0343L164.419 40.1025L163.53 44.0026L167.622 44.9344L168.51 41.0343ZM165.858 42.7252C166.248 41.6316 166.787 40.8321 167.435 40.2517L164.766 37.2724C163.55 38.3615 162.671 39.7557 162.091 41.3799L165.858 42.7252ZM167.436 40.2509C168.16 39.6015 168.987 39.1325 169.938 38.8381L168.756 35.017C167.261 35.4797 165.924 36.2337 164.765 37.2732L167.436 40.2509ZM169.952 38.8338C170.97 38.5108 172.051 38.3452 173.205 38.3452V34.3452C171.661 34.3452 170.17 34.5678 168.742 35.0213L169.952 38.8338ZM173.205 38.3452C173.939 38.3452 174.745 38.433 175.627 38.6214L176.462 34.7096C175.344 34.4709 174.257 34.3452 173.205 34.3452V38.3452ZM175.649 38.6259C176.418 38.7812 177.131 39.0676 177.799 39.4908L179.939 36.1115C178.86 35.4281 177.69 34.9574 176.44 34.7051L175.649 38.6259ZM177.807 39.4961C178.366 39.8458 178.864 40.3674 179.284 41.1344L182.793 39.2143C182.087 37.9235 181.139 36.863 179.931 36.1062L177.807 39.4961ZM179.288 41.1414C179.635 41.7695 179.883 42.7285 179.883 44.1491H183.883C183.883 42.3085 183.568 40.6175 182.789 39.2073L179.288 41.1414ZM179.883 44.1491V59H183.883V44.1491H179.883ZM181.883 57H177.631V61H181.883V57ZM179.631 59V55.9425H175.631V59H179.631ZM177.631 53.9425H177.457V57.9425H177.631V53.9425ZM175.668 55.048C175.509 55.3657 175.239 55.7406 174.801 56.1635L177.579 59.0411C178.267 58.3768 178.841 57.6452 179.246 56.8369L175.668 55.048ZM174.801 56.1635C174.457 56.4956 173.964 56.8202 173.267 57.1036L174.774 60.809C175.843 60.3742 176.797 59.796 177.579 59.0411L174.801 56.1635ZM173.267 57.1036C172.682 57.3416 171.893 57.495 170.847 57.495V61.495C172.265 61.495 173.593 61.2894 174.774 60.809L173.267 57.1036ZM171.793 58.0007C173.259 58.0007 174.64 57.7101 175.853 57.0347L173.907 53.5399C173.411 53.8157 172.734 54.0007 171.793 54.0007V58.0007ZM175.844 57.0393C176.989 56.4089 177.925 55.544 178.574 54.43L175.117 52.4173C174.872 52.8369 174.498 53.2144 173.915 53.5353L175.844 57.0393ZM178.57 54.4367C179.203 53.3594 179.529 52.1807 179.529 50.9339H175.529C175.529 51.4538 175.4 51.9348 175.121 52.4106L178.57 54.4367ZM179.529 50.9339V48.0511H175.529V50.9339H179.529ZM176.115 46.6369C176.154 46.5978 176.19 46.5675 176.217 46.5453C176.245 46.5229 176.268 46.5068 176.285 46.4962C176.315 46.4759 176.329 46.4704 176.316 46.4765C176.304 46.4822 176.277 46.4947 176.229 46.5125C176.182 46.5302 176.121 46.5511 176.044 46.5746L177.209 50.4013C177.692 50.2544 178.413 49.9957 178.944 49.4653L176.115 46.6369ZM176.072 46.5665C175.721 46.6678 175.295 46.7643 174.787 46.8519L175.467 50.7937C176.085 50.6871 176.659 50.5604 177.182 50.4094L176.072 46.5665ZM174.82 46.8465C174.263 46.9329 173.721 47.0144 173.194 47.0911L173.77 51.0495C174.31 50.9709 174.865 50.8874 175.434 50.7991L174.82 46.8465ZM173.229 47.0863C172.693 47.1546 172.241 47.2136 171.875 47.263L172.41 51.227C172.762 51.1794 173.203 51.1219 173.734 51.0543L173.229 47.0863ZM171.892 47.2608C170.922 47.3835 170.004 47.5936 169.148 47.9026L170.507 51.6648C171.049 51.4691 171.674 51.3201 172.393 51.2292L171.892 47.2608ZM169.14 47.9057C168.187 48.2547 167.336 48.7917 166.664 49.5565L169.671 52.1949C169.834 52.0085 170.09 51.8176 170.515 51.6618L169.14 47.9057ZM166.662 49.5587C165.861 50.4749 165.556 51.6058 165.556 52.7393H169.556C169.556 52.3198 169.659 52.2084 169.673 52.1927L166.662 49.5587ZM165.556 52.7393C165.556 54.3865 166.208 55.8544 167.608 56.8276L169.892 53.5432C169.7 53.4098 169.556 53.247 169.556 52.7393H165.556ZM167.622 56.837C168.832 57.6633 170.27 58.0007 171.793 58.0007V54.0007C170.851 54.0007 170.26 53.7945 169.878 53.5338L167.622 56.837ZM189.671 59H187.671V61H189.671V59ZM189.671 29.1818V27.1818H187.671V29.1818H189.671ZM205.846 30.2301L204.947 32.0165L204.957 32.0215L205.846 30.2301ZM208.962 33.0401L207.234 34.0461L207.237 34.0523L208.962 33.0401ZM209.312 40.1598L211.071 41.1104L211.076 41.102L209.312 40.1598ZM207.477 42.1982L208.586 43.8623L208.591 43.859L207.477 42.1982ZM204.973 43.3047L204.478 41.3669L202.973 41.7512V43.3047H204.973ZM204.973 43.5959H202.973V45.5002L204.875 45.5935L204.973 43.5959ZM207.87 44.5568L206.806 46.2499L206.816 46.2563L206.826 46.2625L207.87 44.5568ZM210.229 47.0465L211.962 46.0475L211.962 46.0475L210.229 47.0465ZM210.083 55.0835L208.362 54.0646L208.36 54.0688L210.083 55.0835ZM206.793 57.9517L207.644 59.7614L207.654 59.7568L206.793 57.9517ZM194.17 55.1417H192.17V57.1417H194.17V55.1417ZM205.293 53.8896L203.959 52.3999L203.959 52.3999L205.293 53.8896ZM205.977 48.1676L204.266 49.2028L204.266 49.2028L205.977 48.1676ZM203.939 46.2894L202.998 48.0541L203.006 48.0584L203.939 46.2894ZM194.17 45.5906V43.5906H192.17V45.5906H194.17ZM194.17 42.0817H192.17V44.0817H194.17V42.0817ZM202.92 41.4993L202.06 39.6935L202.052 39.6976L202.92 41.4993ZM204.856 39.8686L203.206 38.7384L203.203 38.7434L204.856 39.8686ZM204.289 34.2631L202.899 35.7014L202.899 35.7014L204.289 34.2631ZM194.17 33.011V31.011H192.17V33.011H194.17ZM191.671 59V29.1818H187.671V59H191.671ZM189.671 31.1818H200.59V27.1818H189.671V31.1818ZM200.59 31.1818C202.501 31.1818 203.92 31.4995 204.947 32.0165L206.746 28.4438C204.997 27.563 202.912 27.1818 200.59 27.1818V31.1818ZM204.957 32.0215C206.042 32.5601 206.766 33.2432 207.234 34.0461L210.691 32.0341C209.78 30.4687 208.427 29.2784 206.736 28.4388L204.957 32.0215ZM207.237 34.0523C207.731 34.8944 207.996 35.8647 207.996 37.0149H211.996C211.996 35.2144 211.571 33.5348 210.687 32.028L207.237 34.0523ZM207.996 37.0149C207.996 38.0192 207.811 38.7239 207.547 39.2176L211.076 41.102C211.724 39.8874 211.996 38.4955 211.996 37.0149H207.996ZM207.552 39.2092C207.244 39.7797 206.849 40.211 206.363 40.5373L208.591 43.859C209.639 43.1565 210.467 42.2288 211.071 41.1104L207.552 39.2092ZM206.368 40.5341C205.805 40.9091 205.179 41.1878 204.478 41.3669L205.468 45.2425C206.591 44.9557 207.635 44.4966 208.586 43.8623L206.368 40.5341ZM202.973 43.3047V43.5959H206.973V43.3047H202.973ZM204.875 45.5935C205.482 45.6232 206.119 45.8179 206.806 46.2499L208.935 42.8638C207.739 42.1116 206.444 41.6656 205.071 41.5983L204.875 45.5935ZM206.826 46.2625C207.461 46.6512 208.022 47.2236 208.496 48.0455L211.962 46.0475C211.193 44.7147 210.182 43.6272 208.915 42.8511L206.826 46.2625ZM208.496 48.0455C208.905 48.754 209.161 49.7013 209.161 50.9776H213.161C213.161 49.1673 212.795 47.4938 211.962 46.0475L208.496 48.0455ZM209.161 50.9776C209.161 52.173 208.883 53.1846 208.362 54.0646L211.804 56.1023C212.72 54.5557 213.161 52.8301 213.161 50.9776H209.161ZM208.36 54.0688C207.887 54.8713 207.122 55.5785 205.932 56.1466L207.654 59.7568C209.433 58.9078 210.862 57.7028 211.807 56.0981L208.36 54.0688ZM205.941 56.1421C204.808 56.6753 203.228 57 201.1 57V61C203.592 61 205.807 60.6258 207.644 59.7613L205.941 56.1421ZM201.1 57H189.671V61H201.1V57ZM194.17 57.1417H200.663V53.1417H194.17V57.1417ZM200.663 57.1417C202.984 57.1417 205.143 56.7095 206.628 55.3792L203.959 52.3999C203.58 52.7392 202.652 53.1417 200.663 53.1417V57.1417ZM206.628 55.3792C207.983 54.1647 208.691 52.5794 208.691 50.7592H204.691C204.691 51.4434 204.467 51.9449 203.959 52.3999L206.628 55.3792ZM208.691 50.7592C208.691 49.4622 208.358 48.2389 207.689 47.1324L204.266 49.2028C204.548 49.6688 204.691 50.1732 204.691 50.7592H208.691ZM207.689 47.1324C207.009 46.0087 206.048 45.1405 204.872 44.5204L203.006 48.0584C203.597 48.3701 203.995 48.7541 204.266 49.2028L207.689 47.1324ZM204.88 44.5247C203.661 43.8744 202.285 43.5906 200.823 43.5906V47.5906C201.769 47.5906 202.47 47.7726 202.998 48.0541L204.88 44.5247ZM200.823 43.5906H194.17V47.5906H200.823V43.5906ZM192.17 45.5906V55.1417H196.17V45.5906H192.17ZM194.17 44.0817H200.197V40.0817H194.17V44.0817ZM200.197 44.0817C201.468 44.0817 202.679 43.8357 203.788 43.301L202.052 39.6976C201.55 39.9394 200.945 40.0817 200.197 40.0817V44.0817ZM203.78 43.305C204.893 42.7751 205.821 42.006 206.51 40.9939L203.203 38.7434C202.94 39.129 202.578 39.447 202.06 39.6936L203.78 43.305ZM206.506 40.9988C207.246 39.9185 207.584 38.6788 207.584 37.3643H203.584C203.584 37.9717 203.437 38.4016 203.206 38.7384L206.506 40.9988ZM207.584 37.3643C207.584 35.6053 206.944 34.0475 205.678 32.8249L202.899 35.7014C203.361 36.1483 203.584 36.658 203.584 37.3643H207.584ZM205.678 32.8249C204.294 31.4876 202.369 31.011 200.314 31.011V35.011C201.83 35.011 202.555 35.3692 202.899 35.7014L205.678 32.8249ZM200.314 31.011H194.17V35.011H200.314V31.011ZM192.17 33.011V42.0817H196.17V33.011H192.17ZM220.452 58.7088L219.607 60.5216L219.62 60.5274L220.452 58.7088ZM217.729 56.3938L216.055 57.4883L216.063 57.4995L217.729 56.3938ZM217.467 49.5653L219.186 50.5883L219.186 50.5883L217.467 49.5653ZM219.433 47.6289L220.431 49.3616L220.431 49.3616L219.433 47.6289ZM225.315 45.9982L225.084 44.0115L225.078 44.0123L225.315 45.9982ZM228.576 45.6197L228.807 47.6063L228.818 47.605L228.83 47.6035L228.576 45.6197ZM230.396 45.1101L231.444 46.8134L231.444 46.8134L230.396 45.1101ZM229.886 40.9169L228.482 42.3409L228.492 42.3504L229.886 40.9169ZM223.247 40.8441L224.465 42.4307L224.468 42.4287L223.247 40.8441ZM221.515 42.9844L221.07 44.9344L222.726 45.3115L223.367 43.739L221.515 42.9844ZM217.423 42.0526L215.54 41.3799L214.782 43.5022L216.979 44.0026L217.423 42.0526ZM219.549 38.7621L220.884 40.2517L220.884 40.2509L219.549 38.7621ZM222.796 36.9276L223.387 38.8381L223.394 38.836L223.401 38.8338L222.796 36.9276ZM229.493 36.6655L229.076 38.6214L229.087 38.6237L229.097 38.6259L229.493 36.6655ZM232.318 37.8011L231.248 39.4908L231.256 39.4961L232.318 37.8011ZM234.487 40.1744L232.733 41.1344L232.737 41.1414L234.487 40.1744ZM235.332 59V61H237.332V59H235.332ZM231.08 59H229.08V61H231.08V59ZM231.08 55.9425H233.08V53.9425H231.08V55.9425ZM230.906 55.9425V53.9425H229.67L229.117 55.048L230.906 55.9425ZM229.639 57.6023L228.25 56.1635L228.25 56.1635L229.639 57.6023ZM227.47 58.9563L226.716 57.1036L227.47 58.9563ZM228.329 55.2873L227.364 53.5353L227.356 53.5399L228.329 55.2873ZM230.294 53.4237L228.57 52.4105L228.566 52.4173L230.294 53.4237ZM230.978 48.0511H232.978V43.2227L229.564 46.6369L230.978 48.0511ZM230.076 48.4879L230.631 50.4094L230.644 50.4054L230.658 50.4013L230.076 48.4879ZM228.576 48.8228L228.883 50.7991L228.899 50.7966L228.916 50.7937L228.576 48.8228ZM226.931 49.0703L227.183 51.0543L227.201 51.0521L227.219 51.0495L226.931 49.0703ZM225.591 49.245L225.842 51.2292L225.851 51.2282L225.859 51.227L225.591 49.245ZM223.276 49.7837L222.597 47.9026L222.589 47.9057L223.276 49.7837ZM221.617 50.8757L220.113 49.5565L220.111 49.5587L221.617 50.8757ZM222.199 55.1854L221.057 56.8276L221.064 56.8323L221.071 56.837L222.199 55.1854ZM224.296 57.495C223.13 57.495 222.137 57.2807 221.284 56.8902L219.62 60.5274C221.057 61.1852 222.627 61.495 224.296 61.495V57.495ZM221.297 56.896C220.47 56.5107 219.853 55.9772 219.396 55.2881L216.063 57.4995C216.945 58.8294 218.143 59.8392 219.607 60.5216L221.297 56.896ZM219.403 55.2993C218.998 54.6793 218.739 53.8424 218.739 52.6811H214.739C214.739 54.4511 215.14 56.0894 216.055 57.4883L219.403 55.2993ZM218.739 52.6811C218.739 51.6641 218.936 51.0083 219.186 50.5883L215.748 48.5424C215.028 49.7531 214.739 51.1744 214.739 52.6811H218.739ZM219.186 50.5883C219.495 50.0684 219.902 49.6668 220.431 49.3616L218.434 45.8962C217.313 46.5422 216.41 47.4316 215.748 48.5424L219.186 50.5883ZM220.431 49.3616C221.073 48.9916 221.812 48.6995 222.662 48.4971L221.736 44.6059C220.547 44.8888 219.442 45.315 218.434 45.8962L220.431 49.3616ZM222.662 48.4971C223.605 48.2725 224.568 48.1014 225.552 47.9841L225.078 44.0123C223.945 44.1474 222.831 44.3452 221.736 44.6059L222.662 48.4971ZM225.545 47.9849C226.885 47.8296 227.972 47.7034 228.807 47.6063L228.345 43.6331C227.511 43.7301 226.424 43.8562 225.084 44.0115L225.545 47.9849ZM228.83 47.6035C229.739 47.4872 230.693 47.2755 231.444 46.8134L229.348 43.4068C229.368 43.3945 229.31 43.4324 229.118 43.4863C228.933 43.538 228.673 43.591 228.322 43.6358L228.83 47.6035ZM231.444 46.8134C232.529 46.146 232.964 45.0471 232.964 43.9744H228.964C228.964 43.9986 228.96 43.9038 229.033 43.757C229.114 43.5958 229.236 43.4754 229.348 43.4068L231.444 46.8134ZM232.964 43.9744V43.8725H228.964V43.9744H232.964ZM232.964 43.8725C232.964 42.2142 232.484 40.6537 231.281 39.4835L228.492 42.3504C228.725 42.5778 228.964 42.9877 228.964 43.8725H232.964ZM231.291 39.493C230.076 38.2951 228.426 37.8686 226.712 37.8686V41.8686C227.814 41.8686 228.279 42.141 228.482 42.3408L231.291 39.493ZM226.712 37.8686C224.968 37.8686 223.332 38.2548 222.027 39.2595L224.468 42.4287C224.852 42.1327 225.525 41.8686 226.712 41.8686V37.8686ZM222.03 39.2575C220.98 40.0629 220.145 41.0447 219.662 42.2298L223.367 43.739C223.525 43.3516 223.845 42.9066 224.465 42.4307L222.03 39.2575ZM221.959 41.0343L217.868 40.1025L216.979 44.0026L221.07 44.9344L221.959 41.0343ZM219.307 42.7252C219.697 41.6316 220.236 40.8321 220.884 40.2517L218.215 37.2724C216.999 38.3615 216.12 39.7557 215.54 41.3799L219.307 42.7252ZM220.884 40.2509C221.609 39.6015 222.436 39.1325 223.387 38.8381L222.205 35.017C220.709 35.4797 219.373 36.2337 218.214 37.2732L220.884 40.2509ZM223.401 38.8338C224.418 38.5108 225.5 38.3452 226.654 38.3452V34.3452C225.11 34.3452 223.619 34.5678 222.191 35.0213L223.401 38.8338ZM226.654 38.3452C227.388 38.3452 228.194 38.433 229.076 38.6214L229.911 34.7096C228.793 34.4709 227.706 34.3452 226.654 34.3452V38.3452ZM229.097 38.6259C229.867 38.7812 230.58 39.0676 231.248 39.4908L233.388 36.1115C232.309 35.4281 231.139 34.9574 229.889 34.7051L229.097 38.6259ZM231.256 39.4961C231.815 39.8458 232.313 40.3674 232.733 41.1344L236.242 39.2143C235.536 37.9235 234.588 36.863 233.38 36.1062L231.256 39.4961ZM232.737 41.1414C233.084 41.7695 233.332 42.7285 233.332 44.1491H237.332C237.332 42.3085 237.017 40.6175 236.238 39.2073L232.737 41.1414ZM233.332 44.1491V59H237.332V44.1491H233.332ZM235.332 57H231.08V61H235.332V57ZM233.08 59V55.9425H229.08V59H233.08ZM231.08 53.9425H230.906V57.9425H231.08V53.9425ZM229.117 55.048C228.958 55.3657 228.688 55.7406 228.25 56.1635L231.028 59.0411C231.716 58.3768 232.29 57.6452 232.694 56.8369L229.117 55.048ZM228.25 56.1635C227.906 56.4956 227.413 56.8202 226.716 57.1036L228.223 60.809C229.292 60.3742 230.246 59.796 231.028 59.0411L228.25 56.1635ZM226.716 57.1036C226.131 57.3416 225.342 57.495 224.296 57.495V61.495C225.714 61.495 227.041 61.2894 228.223 60.809L226.716 57.1036ZM225.242 58.0007C226.708 58.0007 228.088 57.7101 229.302 57.0347L227.356 53.5399C226.86 53.8157 226.183 54.0007 225.242 54.0007V58.0007ZM229.293 57.0393C230.438 56.4089 231.374 55.544 232.022 54.43L228.566 52.4173C228.321 52.8369 227.947 53.2144 227.364 53.5353L229.293 57.0393ZM232.019 54.4367C232.651 53.3594 232.978 52.1807 232.978 50.9339H228.978C228.978 51.4538 228.849 51.9348 228.57 52.4106L232.019 54.4367ZM232.978 50.9339V48.0511H228.978V50.9339H232.978ZM229.564 46.6369C229.603 46.5978 229.638 46.5675 229.666 46.5453C229.694 46.5229 229.717 46.5068 229.733 46.4962C229.764 46.4759 229.778 46.4704 229.765 46.4765C229.753 46.4822 229.726 46.4947 229.678 46.5125C229.631 46.5302 229.57 46.5511 229.493 46.5746L230.658 50.4013C231.141 50.2544 231.862 49.9957 232.393 49.4653L229.564 46.6369ZM229.521 46.5665C229.17 46.6678 228.744 46.7643 228.236 46.8519L228.916 50.7937C229.534 50.6871 230.108 50.5604 230.631 50.4094L229.521 46.5665ZM228.269 46.8465C227.712 46.9329 227.17 47.0144 226.643 47.0911L227.219 51.0495C227.759 50.9709 228.314 50.8874 228.883 50.7991L228.269 46.8465ZM226.678 47.0863C226.142 47.1546 225.69 47.2136 225.324 47.263L225.859 51.227C226.211 51.1794 226.652 51.1219 227.183 51.0543L226.678 47.0863ZM225.34 47.2608C224.371 47.3835 223.453 47.5936 222.597 47.9026L223.956 51.6648C224.498 51.4691 225.123 51.3201 225.842 51.2292L225.34 47.2608ZM222.589 47.9057C221.636 48.2547 220.784 48.7917 220.113 49.5565L223.12 52.1949C223.283 52.0085 223.539 51.8176 223.964 51.6618L222.589 47.9057ZM220.111 49.5587C219.31 50.4749 219.005 51.6058 219.005 52.7393H223.005C223.005 52.3198 223.108 52.2084 223.122 52.1927L220.111 49.5587ZM219.005 52.7393C219.005 54.3865 219.657 55.8544 221.057 56.8276L223.34 53.5432C223.149 53.4098 223.005 53.247 223.005 52.7393H219.005ZM221.071 56.837C222.281 57.6633 223.719 58.0007 225.242 58.0007V54.0007C224.3 54.0007 223.709 53.7945 223.327 53.5338L221.071 56.837ZM259.528 42.0962L259.877 44.0656L262 43.6896L261.466 41.601L259.528 42.0962ZM255.583 42.7951L253.682 43.4166L254.221 45.0673L255.931 44.7644L255.583 42.7951ZM254.796 41.3537L253.209 42.5698L253.217 42.5804L253.225 42.5908L254.796 41.3537ZM253.37 40.2326L254.241 38.4323L254.241 38.4323L253.37 40.2326ZM248.026 40.6257L249.127 42.2958L249.133 42.2913L249.14 42.2868L248.026 40.6257ZM247.619 44.5423L248.891 42.9992L247.619 44.5423ZM250.297 45.6634L249.838 47.6098L249.85 47.6127L250.297 45.6634ZM253.85 46.4787L254.3 44.5301L254.297 44.5294L253.85 46.4787ZM258.451 48.6772L257.05 50.1051L257.05 50.1051L258.451 48.6772ZM258.8 56.1172L257.193 54.9267L257.191 54.9293L258.8 56.1172ZM255.583 58.5632L254.793 56.7256L254.789 56.7276L255.583 58.5632ZM244.692 57.8498L243.566 59.5029L243.573 59.5076L244.692 57.8498ZM241.78 53.2635L241.479 51.2863L239.445 51.596L239.812 53.6204L241.78 53.2635ZM245.988 52.6229L247.933 52.1581L247.506 50.3688L245.687 50.6457L245.988 52.6229ZM247.604 55.1126L246.468 56.7584L246.474 56.763L246.481 56.7675L247.604 55.1126ZM254.214 55.0543L255.353 56.698L255.36 56.6937L255.366 56.6893L254.214 55.0543ZM254.709 51.0941L253.351 52.5626L253.358 52.569L253.365 52.5752L254.709 51.0941ZM252.336 50.0167L252.779 48.0664L252.772 48.0647L252.764 48.0631L252.336 50.0167ZM248.55 49.1868L248.106 51.1368L248.114 51.1386L248.122 51.1404L248.55 49.1868ZM243.92 46.9155L242.473 48.2955L242.479 48.3025L243.92 46.9155ZM243.542 39.5046L241.938 38.3097L241.938 38.3097L243.542 39.5046ZM246.599 37.1896L247.382 39.0301L247.394 39.0251L246.599 37.1896ZM256.777 37.9176L255.571 39.5136L255.578 39.519L256.777 37.9176ZM259.18 40.1269L255.234 40.8258L255.931 44.7644L259.877 44.0656L259.18 40.1269ZM257.484 42.1736C257.239 41.426 256.859 40.7399 256.368 40.1166L253.225 42.5908C253.453 42.8799 253.596 43.1547 253.682 43.4166L257.484 42.1736ZM256.384 40.1375C255.816 39.3958 255.078 38.8373 254.241 38.4323L252.498 42.0329C252.865 42.2103 253.078 42.3992 253.209 42.5698L256.384 40.1375ZM254.241 38.4323C253.289 37.972 252.217 37.7958 251.113 37.7958V41.7958C251.814 41.7958 252.246 41.9108 252.498 42.0329L254.241 38.4323ZM251.113 37.7958C249.579 37.7958 248.138 38.1424 246.912 38.9646L249.14 42.2868C249.564 42.0025 250.181 41.7958 251.113 41.7958V37.7958ZM246.926 38.9556C245.634 39.807 244.789 41.0948 244.789 42.7369H248.789C248.789 42.6387 248.808 42.5994 248.823 42.5726C248.845 42.5354 248.917 42.434 249.127 42.2958L246.926 38.9556ZM244.789 42.7369C244.789 44.0524 245.31 45.2311 246.346 46.0853L248.891 42.9992C248.827 42.9468 248.815 42.9182 248.813 42.9134C248.81 42.9063 248.789 42.8593 248.789 42.7369H244.789ZM246.346 46.0853C247.253 46.8331 248.502 47.2943 249.838 47.6098L250.757 43.7169C249.627 43.45 249.091 43.1638 248.891 42.9992L246.346 46.0853ZM249.85 47.6127L253.403 48.428L254.297 44.5294L250.745 43.714L249.85 47.6127ZM253.4 48.4273C255.264 48.8582 256.403 49.4699 257.05 50.1051L259.851 47.2493C258.48 45.9044 256.552 45.0504 254.3 44.5301L253.4 48.4273ZM257.05 50.1051C257.629 50.6726 257.965 51.4204 257.965 52.5355H261.965C261.965 50.4863 261.292 48.6619 259.851 47.2493L257.05 50.1051ZM257.965 52.5355C257.965 53.4587 257.707 54.2327 257.193 54.9267L260.407 57.3076C261.446 55.9051 261.965 54.2913 261.965 52.5355H257.965ZM257.191 54.9293C256.667 55.639 255.899 56.2506 254.793 56.7256L256.372 60.4008C258.023 59.6917 259.4 58.6725 260.409 57.3051L257.191 54.9293ZM254.789 56.7276C253.718 57.1909 252.41 57.4513 250.822 57.4513V61.4513C252.844 61.4513 254.71 61.1197 256.377 60.3988L254.789 56.7276ZM250.822 57.4513C248.593 57.4513 246.974 56.9767 245.811 56.192L243.573 59.5076C245.575 60.8583 248.041 61.4513 250.822 61.4513V57.4513ZM245.818 56.1967C244.703 55.4379 244.017 54.3894 243.748 52.9066L239.812 53.6204C240.262 56.0978 241.516 58.1069 243.566 59.5029L245.818 56.1967ZM242.081 55.2407L246.289 54.6001L245.687 50.6457L241.479 51.2863L242.081 55.2407ZM244.043 53.0877C244.402 54.5935 245.19 55.8761 246.468 56.7584L248.74 53.4668C248.387 53.2231 248.097 52.8459 247.933 52.1581L244.043 53.0877ZM246.481 56.7675C247.721 57.6089 249.212 57.9425 250.793 57.9425V53.9425C249.753 53.9425 249.118 53.7228 248.727 53.4576L246.481 56.7675ZM250.793 57.9425C252.479 57.9425 254.061 57.5941 255.353 56.698L253.075 53.4106C252.659 53.6987 251.96 53.9425 250.793 53.9425V57.9425ZM255.366 56.6893C256.625 55.8019 257.495 54.5108 257.495 52.8558H253.495C253.495 52.9286 253.511 53.1032 253.062 53.4194L255.366 56.6893ZM257.495 52.8558C257.495 51.5847 256.989 50.4622 256.053 49.613L253.365 52.5752C253.443 52.6457 253.465 52.6902 253.472 52.7063C253.479 52.7219 253.495 52.7626 253.495 52.8558H257.495ZM256.067 49.6256C255.189 48.8142 254.013 48.3469 252.779 48.0664L251.893 51.967C252.794 52.1718 253.2 52.4228 253.351 52.5626L256.067 49.6256ZM252.764 48.0631L248.979 47.2332L248.122 51.1404L251.908 51.9703L252.764 48.0631ZM248.995 47.2368C247.115 46.8083 245.989 46.1811 245.361 45.5285L242.479 48.3025C243.851 49.7271 245.812 50.6141 248.106 51.1368L248.995 47.2368ZM245.368 45.5355C244.773 44.9109 244.435 44.109 244.435 42.9698H240.435C240.435 45.0144 241.088 46.8429 242.473 48.2955L245.368 45.5355ZM244.435 42.9698C244.435 42.0487 244.683 41.3198 245.146 40.6996L241.938 38.3097C240.925 39.6695 240.435 41.2508 240.435 42.9698H244.435ZM245.146 40.6996C245.643 40.0326 246.36 39.4651 247.382 39.03L245.816 35.3492C244.238 36.0207 242.916 36.9965 241.938 38.3097L245.146 40.6996ZM247.394 39.0251C248.402 38.5888 249.613 38.3452 251.069 38.3452V34.3452C249.166 34.3452 247.398 34.6645 245.805 35.3542L247.394 39.0251ZM251.069 38.3452C253.217 38.3452 254.643 38.8124 255.571 39.5136L257.982 36.3216C256.134 34.9262 253.755 34.3452 251.069 34.3452V38.3452ZM255.578 39.519C256.585 40.2724 257.252 41.2673 257.591 42.5914L261.466 41.601C260.911 39.4308 259.744 37.64 257.975 36.3163L255.578 39.519ZM270.337 58.0391L269.307 59.7531L269.313 59.7568L269.319 59.7605L270.337 58.0391ZM266.668 54.0352L264.875 54.9215L264.881 54.9336L266.668 54.0352ZM266.668 41.907L264.875 41.0205L264.871 41.0285L266.668 41.907ZM270.279 37.8157L269.211 36.1245L269.207 36.1275L270.279 37.8157ZM279.393 36.9712L280.058 35.085L280.058 35.085L279.393 36.9712ZM282.582 38.9368L281.206 40.3879L281.206 40.3879L282.582 38.9368ZM284.81 42.4165L282.941 43.1285L282.942 43.1328L284.81 42.4165ZM285.625 49.1286V51.1286H287.625V49.1286H285.625ZM267.848 49.1286H265.848V51.1286H267.848V49.1286ZM267.848 45.8672V43.8672H265.848V45.8672H267.848ZM281.359 45.8672V47.8672H283.359V45.8672H281.359ZM280.66 42.8242L278.887 43.7494L278.891 43.7573L280.66 42.8242ZM278.694 40.7131L277.645 42.4157L277.654 42.4211L278.694 40.7131ZM272.55 40.8441L273.647 42.5165L273.652 42.5137L272.55 40.8441ZM270.454 43.1737L268.676 42.2577L268.672 42.2647L270.454 43.1737ZM270.512 52.6374L268.723 53.5319L268.726 53.5385L268.73 53.545L270.512 52.6374ZM272.74 55.0398L271.734 56.7686L271.741 56.7725L271.747 56.7763L272.74 55.0398ZM278.331 55.5057L278.979 57.3976L278.991 57.3934L279.003 57.3892L278.331 55.5057ZM280.092 54.4283L278.707 52.9861L278.707 52.9861L280.092 54.4283ZM281.228 52.6665L281.583 50.6983L279.941 50.4024L279.355 51.9643L281.228 52.6665ZM285.348 53.4091L287.278 53.934L287.851 51.8279L285.703 51.4408L285.348 53.4091ZM283.572 56.5977L282.112 55.2308L282.111 55.2313L283.572 56.5977ZM280.383 58.7088L281.109 60.5726L281.116 60.5696L280.383 58.7088ZM276.03 57.4513C274.116 57.4513 272.585 57.0446 271.355 56.3176L269.319 59.7605C271.274 60.9165 273.537 61.4513 276.03 61.4513V57.4513ZM271.368 56.325C270.124 55.577 269.156 54.5316 268.455 53.1367L264.881 54.9336C265.908 56.9748 267.387 58.5986 269.307 59.7531L271.368 56.325ZM268.461 53.1488C267.768 51.7472 267.387 50.038 267.387 47.9638H263.387C263.387 50.5292 263.86 52.8676 264.875 54.9215L268.461 53.1488ZM267.387 47.9638C267.387 45.9237 267.766 44.2145 268.465 42.7854L264.871 41.0285C263.862 43.0938 263.387 45.4224 263.387 47.9638H267.387ZM268.461 42.7934C269.174 41.3518 270.138 40.2749 271.351 39.5039L269.207 36.1275C267.334 37.3172 265.89 38.9678 264.875 41.0205L268.461 42.7934ZM271.347 39.5069C272.54 38.7538 273.974 38.3452 275.724 38.3452V34.3452C273.32 34.3452 271.124 34.9169 269.211 36.1245L271.347 39.5069ZM275.724 38.3452C276.761 38.3452 277.759 38.5158 278.729 38.8575L280.058 35.085C278.659 34.5919 277.211 34.3452 275.724 34.3452V38.3452ZM278.729 38.8575C279.639 39.1783 280.461 39.6817 281.206 40.3879L283.958 37.4857C282.82 36.4059 281.516 35.5989 280.058 35.085L278.729 38.8575ZM281.206 40.3879C281.894 41.0412 282.485 41.9327 282.941 43.1285L286.679 41.7046C286.047 40.0467 285.152 38.6184 283.958 37.4857L281.206 40.3879ZM282.942 43.1328C283.374 44.2587 283.625 45.7239 283.625 47.5852H287.625C287.625 45.3893 287.332 43.4087 286.677 41.7003L282.942 43.1328ZM283.625 47.5852V49.1286H287.625V47.5852H283.625ZM285.625 47.1286H267.848V51.1286H285.625V47.1286ZM269.848 49.1286V45.8672H265.848V49.1286H269.848ZM267.848 47.8672H281.359V43.8672H267.848V47.8672ZM283.359 45.8672C283.359 44.4448 283.068 43.1018 282.429 41.8911L278.891 43.7573C279.184 44.3132 279.359 44.9989 279.359 45.8672H283.359ZM282.433 41.8991C281.802 40.6896 280.896 39.7126 279.735 39.005L277.654 42.4211C278.181 42.7424 278.586 43.1728 278.887 43.7494L282.433 41.8991ZM279.744 39.0104C278.549 38.2741 277.194 37.9414 275.753 37.9414V41.9414C276.565 41.9414 277.17 42.1231 277.645 42.4157L279.744 39.0104ZM275.753 37.9414C274.187 37.9414 272.726 38.3321 271.449 39.1746L273.652 42.5137C274.199 42.1525 274.874 41.9414 275.753 41.9414V37.9414ZM271.453 39.1718C270.262 39.9533 269.329 40.9906 268.676 42.2577L272.232 44.0896C272.569 43.4349 273.033 42.9191 273.647 42.5165L271.453 39.1718ZM268.672 42.2647C268.037 43.5103 267.726 44.8574 267.726 46.2749H271.726C271.726 45.4598 271.9 44.7395 272.235 44.0826L268.672 42.2647ZM267.726 46.2749V48.8228H271.726V46.2749H267.726ZM267.726 48.8228C267.726 50.5451 268.027 52.1401 268.723 53.5319L272.301 51.743C271.948 51.0382 271.726 50.0901 271.726 48.8228H267.726ZM268.73 53.545C269.426 54.9113 270.427 56.0085 271.734 56.7686L273.745 53.3109C273.15 52.9646 272.666 52.4601 272.294 51.7298L268.73 53.545ZM271.747 56.7763C273.046 57.5185 274.511 57.8551 276.074 57.8551V53.8551C275.094 53.8551 274.335 53.6482 273.732 53.3033L271.747 56.7763ZM276.074 57.8551C277.087 57.8551 278.062 57.7119 278.979 57.3976L277.682 53.6138C277.24 53.7654 276.71 53.8551 276.074 53.8551V57.8551ZM279.003 57.3892C279.935 57.0564 280.769 56.5519 281.478 55.8705L278.707 52.9861C278.426 53.2559 278.085 53.4696 277.658 53.6222L279.003 57.3892ZM281.478 55.8705C282.207 55.1701 282.743 54.3228 283.101 53.3688L279.355 51.9643C279.189 52.408 278.968 52.7352 278.707 52.9861L281.478 55.8705ZM280.873 54.6348L284.994 55.3774L285.703 51.4408L281.583 50.6983L280.873 54.6348ZM283.418 52.8842C283.173 53.7847 282.742 54.558 282.112 55.2308L285.032 57.9645C286.111 56.8125 286.863 55.4601 287.278 53.934L283.418 52.8842ZM282.111 55.2313C281.492 55.8936 280.687 56.4395 279.65 56.848L281.116 60.5696C282.642 59.9686 283.963 59.1071 285.033 57.964L282.111 55.2313ZM279.658 56.8451C278.658 57.2343 277.46 57.4513 276.03 57.4513V61.4513C277.862 61.4513 279.566 61.1733 281.109 60.5725L279.658 56.8451Z" fill="white" mask="url(#path-4-outside-1_1_2)"/>
<g clip-path="url(#clip0_1_2)">
<path d="M68.5505 20.2009C70.7916 22.2538 70.0543 26.6844 68.8742 29.0865C67.0136 32.874 62.4857 33.2802 58.7838 32.7864C58.3904 37.1923 58.3227 41.6187 58.3168 46.0396C58.3139 48.1594 58.3217 50.2791 58.3217 52.3989V55.541C58.3217 56.3877 58.5446 56.5831 59.4008 56.5333C59.9799 56.4998 61.8449 55.9029 61.9103 56.8654C61.9533 57.497 61.4741 58.6199 61.9072 59.1452C62.2959 59.6164 63.0375 59.7644 63.5947 59.9224C64.3206 60.1283 65.1083 60.5116 65.8656 60.5579C66.4464 60.5933 66.1449 61.617 66.1319 62.0245C66.1031 62.9355 66.1471 63.8285 66.194 64.7355C66.2407 65.6383 65.9295 65.5509 65.1151 65.6297C60.8396 66.0433 56.4461 65.6961 52.1553 65.6863C47.7161 65.6762 43.2759 65.7015 38.84 65.8837C34.5419 66.06 30.2431 66.0462 25.9446 66.1801C24.1929 66.2346 22.4236 66.3302 20.6755 66.3419C20.0306 66.3462 20.0172 66.0797 20.1042 65.5479C20.2455 64.6849 20.1951 63.8129 20.1951 62.9401C20.1951 62.4782 19.9861 61.4402 20.4559 61.1109C21.0278 60.7097 21.8478 60.5772 22.4804 60.2807C24.2584 59.4485 23.7341 58.7643 23.7633 57.1003C23.7775 56.2951 24.8194 56.887 25.3973 56.8757C26.2461 56.8587 25.902 56.0189 25.8954 55.346C25.8829 54.1133 25.8553 52.8809 25.821 51.6488C25.6967 47.166 25.591 42.681 25.428 38.1996C25.3899 37.1485 25.3595 36.0973 25.3362 35.0456C25.3249 34.5417 25.6188 32.823 24.9212 32.8511C23.2235 32.919 21.5903 32.7179 20.0454 31.9635C13.5374 28.7848 15.2987 18.6294 22.3482 17.4814C24.1602 17.1863 26.0497 17.3622 27.8759 17.3819C30.1674 17.4064 32.4589 17.4136 34.7506 17.4125C39.2505 17.4099 43.7504 17.3901 48.2498 17.3042C52.1878 17.2289 56.13 16.9961 60.0688 16.9998C63.2306 17.0027 66.528 17.5863 68.5505 20.2009Z" fill="#171923"/>
<path d="M67.2875 19.4924C70.6409 22.8463 69.8972 29.7745 65.3638 31.7764C63.2012 32.7313 59.6281 33.0712 57.6114 31.6238C56.6834 30.9581 55.5412 30.0301 55.0435 28.979C54.5005 27.832 54.9057 26.1258 55.4241 25.0332C56.4253 22.9235 58.5311 21.3059 60.9223 21.482C63.4657 21.6694 65.0779 23.473 64.6621 26.0452C64.3344 28.0733 62.1386 30.491 59.9417 29.1552C58.9716 28.565 58.3289 27.302 58.6968 26.1758C58.907 25.5329 60.3366 24.467 60.6636 25.5926C59.9596 25.411 59.9886 26.6752 60.1031 27.0454C60.4328 28.1123 61.7519 28.0735 62.4522 27.3742C64.5784 25.2512 61.5165 21.8353 58.9823 23.0792C56.0131 24.5365 55.9724 28.5257 58.7579 30.1788C61.3844 31.7375 64.9487 30.4456 66.4098 27.9017C67.7239 25.6141 67.2941 22.1496 65.2459 20.3992C63.9978 19.3326 62.1057 19.2742 60.5492 19.1146C58.3373 18.888 56.1098 18.8707 53.8887 18.9231C45.0026 19.1327 36.1273 19.4359 27.2365 19.4807C25.1896 19.491 22.0384 18.8835 20.2878 20.1795C18.5443 21.4701 17.4839 23.791 17.7337 25.9467C18.2135 30.0867 22.9602 32.65 26.6412 30.5897C28.2721 29.677 29.4832 27.9293 29.2656 26.0041C29.0616 24.2006 27.5703 22.6376 25.697 22.6411C23.6656 22.645 22.037 24.6788 23.0456 26.5707C23.447 27.3234 24.6989 27.6776 25.3105 26.9596C25.7467 26.4477 25.5546 25.4105 24.74 25.5156C25.6807 24.499 27.0589 25.8101 26.955 26.9057C26.8337 28.1837 25.4664 29.073 24.3092 29.2461C21.3587 29.6873 19.6813 26.9834 20.3129 24.3273C21.091 21.0555 24.4702 20.1343 27.4315 21.0156C30.916 22.0529 31.2239 25.0564 30.0669 28.0802C27.6421 34.4185 17.4002 33.4795 16.4212 26.6346C15.9541 23.3693 17.6708 19.5644 20.8633 18.3374C22.2371 17.8093 23.7382 17.7986 25.1892 17.8134C27.3192 17.835 29.4493 17.8617 31.5795 17.8741C37.9277 17.9111 44.2902 17.9027 50.6365 17.7324C53.8214 17.647 57.003 17.4847 60.1899 17.5756C62.5869 17.6441 65.4674 17.6826 67.2875 19.4924Z" fill="#BFBFBF"/>
<path d="M66.3633 23.0818C66.954 25.3964 66.2561 28.3423 64.0911 29.6186C62.0769 30.8061 58.5691 30.4955 57.503 28.1489C56.6184 26.2021 57.9772 23.0917 60.382 23.336C61.7225 23.4722 62.5088 24.4723 62.4428 25.7929C62.4103 26.4403 62.2589 27.0752 61.5415 27.2409C60.8703 27.3958 60.1805 26.9452 60.5865 26.2243C61.3739 27.3016 61.5798 24.9104 60.3222 24.6064C59.1065 24.3123 58.222 25.3565 58.1827 26.4679C58.0868 29.1814 60.9778 31.013 63.3121 29.4421C65.5754 27.9188 66.0235 23.9468 63.9515 22.0766C62.7266 20.9709 60.9167 20.8099 59.3438 20.7291C57.183 20.6182 55.0175 20.8335 52.8602 20.9318C48.5133 21.1301 44.1674 21.35 39.82 21.5429C37.772 21.6336 35.7232 21.7043 33.6738 21.7617C32.6862 21.7894 31.6986 21.8143 30.7108 21.8353C29.7107 21.8565 28.838 21.2025 27.965 20.8093C25.2943 19.6063 21.4566 20.3525 20.113 23.1357C19.014 25.4122 19.7784 29.0002 22.4911 29.7033C24.5847 30.2459 28.5664 28.6407 27.3704 25.8673C26.9063 24.7915 25.4561 24.395 24.4708 24.9856C24.173 25.164 23.3617 26.5736 24.1306 26.3249C24.3334 26.2593 24.4864 25.9899 24.7248 26.0244C25.1201 26.0816 25.0882 26.3469 24.813 26.5444C23.607 27.4104 22.9769 25.7639 23.2821 24.8022C23.7726 23.256 25.8465 22.8227 27.137 23.5333C29.7789 24.9881 28.8533 28.5434 26.6901 29.8781C23.8787 31.6127 19.9189 30.4708 18.6053 27.3884C17.4479 24.6732 18.9655 20.7163 22.0066 20.0333C23.8569 19.6175 25.9884 19.9426 27.871 19.9586C30.2217 19.9786 32.5726 19.9813 34.9232 19.9671C39.4199 19.9399 43.9102 19.8453 48.4018 19.6269C52.1298 19.4459 55.9457 19.1691 59.6805 19.3972C62.1639 19.5488 65.8193 20.1059 66.3633 23.0818Z" fill="#808080"/>
<path d="M58.2295 21.2948C57.4141 21.5784 56.8814 22.2874 56.2762 22.8587C55.5121 23.5801 54.7662 23.5355 53.7665 23.4537C51.0902 23.235 48.3187 23.452 45.6332 23.4695C42.7615 23.488 39.9032 23.5993 37.0373 23.7827C35.6057 23.8743 34.1741 23.9697 32.7413 24.0429C32.0819 24.0766 31.2385 24.404 31.1017 23.7218C30.9981 23.2048 30.683 22.7678 30.4397 22.3116C35.4977 22.2185 40.5433 22.0155 45.5939 21.7358C48.0752 21.5984 50.5738 21.4067 53.0584 21.3693C54.0612 21.3541 55.0619 21.4123 56.0604 21.3008C56.6992 21.2294 57.6179 21.0011 58.2295 21.2948Z" fill="#5E5E5E"/>
<path d="M55.4258 23.8673C54.8302 25.173 54.2364 26.4234 54.2741 27.8914C54.2868 28.3846 54.343 28.8994 54.6009 29.3325C54.8855 29.8111 55.4155 30.1097 55.5586 30.6742C55.8336 31.7606 55.4576 33.0357 55.4266 34.1421C55.3813 35.752 55.3287 37.3618 55.2921 38.9717C55.2195 42.1426 55.1981 45.3143 55.1664 48.4858C55.1506 50.0719 55.1323 51.6585 55.1039 53.2446C55.0926 53.8686 55.4797 56.4254 54.6013 56.6277C53.7825 56.8165 52.8402 56.8823 52.8126 55.8822C52.7725 54.4358 52.8241 53.0007 52.849 51.5539C52.9066 48.1909 52.878 44.8267 52.935 41.4635C52.9891 38.2747 53.0718 35.0865 53.1368 31.8977C53.1672 30.4075 53.1801 28.9165 53.2168 27.4264C53.2482 26.1635 52.1975 25.129 51.7599 23.9592C52.9418 23.5645 54.2154 23.9666 55.4258 23.8673Z" fill="#E3E3E3"/>
<path d="M45.1818 23.9444C44.9524 24.9367 43.6578 25.159 43.4342 26.0757C43.1134 27.3917 43.3207 29.0076 43.2892 30.3592C43.2101 33.7481 43.1171 37.137 43.1782 40.5271C43.2382 43.8471 43.3178 47.1634 43.3178 50.4842V55.161C43.3178 56.5638 43.3437 56.7174 41.9372 56.6208C40.5914 56.5284 41.2079 53.5401 41.2114 52.5705C41.2228 49.2762 41.2345 45.9821 41.246 42.688C41.2579 39.3005 41.2273 35.909 41.3314 32.5227C41.3795 30.9575 41.4669 29.4016 41.4469 27.8349C41.4255 26.1688 40.8966 25.5282 39.8825 24.2679C41.6411 24.0423 43.4219 24.1467 45.1818 23.9444Z" fill="#E3E3E3"/>
<path d="M51.2052 23.9444C51.0147 24.8921 50.1261 25.4196 49.5321 26.0977C48.6838 27.0663 49.0755 28.5267 49.0622 29.7031C49.0249 33.0198 48.7672 36.3188 48.8059 39.6432C48.8431 42.8708 48.9221 46.0975 48.9431 49.3251C48.9536 50.9371 48.9497 52.5493 48.9192 54.1614C48.9057 54.8722 48.9602 55.6297 48.8645 56.3353C48.7847 56.9233 47.7867 56.731 47.3587 56.7532C47.0097 56.7715 47.0779 41.171 47.0854 39.7731C47.102 36.6405 47.1065 33.5037 47.2092 30.3725C47.2462 29.2379 47.3029 28.1224 47.4354 26.9964C47.583 25.7441 46.7915 24.8951 45.9063 24.0367C46.5488 23.6799 47.4889 23.9074 48.1801 23.9497C49.1732 24.0104 50.2133 24.031 51.2052 23.9444Z" fill="#E3E3E3"/>
<path d="M39.0201 24.3448C38.7703 24.7641 38.4395 25.144 38.0496 25.4385C37.745 25.6688 37.2996 25.7579 37.0857 26.0993C36.7996 26.5561 37.2023 27.1196 37.2023 27.5951C37.2023 28.4157 37.0847 29.2356 37.0628 30.0568C36.9775 33.2368 36.9726 36.4176 37.0098 39.5983C37.0476 42.8202 37.125 46.0405 37.3374 49.2562C37.4131 50.4009 38.3318 56.6362 36.8282 56.825C36.1511 56.9103 35.1121 57.0866 35.0544 56.2106C34.9573 54.7358 34.9571 53.2489 34.9083 51.7716C34.8012 48.5491 34.6848 45.3268 34.6286 42.1027C34.5733 38.9281 34.5739 35.752 34.6733 32.5781C34.723 30.9899 34.7973 29.4026 34.9015 27.817C34.9939 26.4098 34.1283 25.7667 33.798 24.4988C35.5391 24.4643 37.2773 24.2714 39.0201 24.3448Z" fill="#E3E3E3"/>
<path d="M46.8303 25.9778C46.7265 32.1842 46.599 38.3878 46.599 44.5953V53.5391C46.599 54.4378 46.7464 55.3376 46.7283 56.2316C46.715 56.8877 45.1324 56.9586 45.1042 56.3139C44.8292 50.0414 44.7453 43.7502 44.8013 37.472C44.8292 34.3759 44.9514 31.2807 45.0384 28.1859C45.0647 27.2504 44.7531 25.4877 45.2371 24.6434C45.6868 23.8598 46.5848 25.7818 46.8303 25.9778Z" fill="#969696"/>
<path d="M32.7658 24.8071C32.4151 25.6721 31.5297 26.1373 31.0559 26.9176C31.0789 26.2883 30.8467 25.528 31.1573 24.9396C31.3417 24.5904 32.856 24.3026 32.7658 24.8071Z" fill="#E3E3E3"/>
<path d="M40.8993 26.286C40.7312 31.9572 40.7306 37.6318 40.7119 43.305C40.7026 46.1945 40.693 49.0838 40.6835 51.9732C40.679 53.3236 40.7175 54.6824 40.6662 56.0321C40.6403 56.7151 40.2615 56.6516 39.6785 56.6658C39.0584 56.6808 39.2897 55.5976 39.2634 55.0637C39.228 54.3455 39.1929 53.6271 39.1587 52.9089C39.0903 51.4718 39.0255 50.0346 38.9691 48.5972C38.856 45.7221 38.7774 42.8459 38.7633 39.9687C38.7495 37.1016 38.9422 34.248 38.978 31.385C38.9952 30.0145 38.943 28.6433 38.943 27.2726C38.943 26.2472 38.7433 25.4075 39.4977 24.6533C39.9859 25.1788 40.3876 25.7813 40.8993 26.286Z" fill="#969696"/>
<path d="M52.6839 33.1562C52.5149 38.5638 52.395 43.973 52.3363 49.3829C52.3121 51.5997 52.4593 53.8784 52.2991 56.0864C52.2576 56.6594 51.5203 57.0329 51.0049 56.6176C50.4558 56.1749 50.589 54.3381 50.5781 53.7491C50.5306 51.2205 50.7684 48.7038 50.6832 46.1723C50.5979 43.6433 50.6814 41.1202 50.74 38.5916C50.7986 36.0607 50.857 33.5296 50.9166 30.9986C50.9652 28.9411 50.4757 26.5682 51.4516 24.6529C53.4718 26.984 52.8404 30.3477 52.6839 33.1562Z" fill="#969696"/>
<path d="M34.4911 27.0715C34.1505 32.6328 34.0641 38.2074 34.1529 43.7778C34.1949 46.4174 34.2981 49.055 34.3923 51.6929C34.4405 53.0426 34.488 54.392 34.5353 55.7417C34.5799 57.0133 34.0754 56.6536 33.0891 56.7559C32.782 51.1962 32.5482 45.6328 32.5095 40.0641C32.4914 37.4703 32.498 34.8757 32.5451 32.2823C32.5687 30.9801 32.6321 29.6788 32.6551 28.3766C32.6757 27.2035 32.6666 26.0039 33.3204 24.9766C33.7106 25.6748 34.1009 26.3732 34.4911 27.0715Z" fill="#969696"/>
<path d="M44.2575 34.0189C44.4498 38.8962 44.4823 43.778 44.4877 48.6586C44.4903 50.8694 44.4887 53.0805 44.4887 55.2914C44.4887 55.6383 44.6154 56.2605 44.4054 56.572C43.9865 57.1929 43.933 56.1257 43.9293 55.9917C43.8953 54.8042 43.8686 53.6167 43.8573 52.4286C43.812 47.7253 43.7773 43.0327 43.6668 38.3302C43.6132 36.0466 43.6802 33.7662 43.7684 31.4842C43.8157 30.2594 43.8682 29.0345 43.9065 27.809C43.9315 27.0079 43.7331 26.1322 44.4885 25.5925C44.5422 28.4023 44.4805 31.2172 44.2575 34.0189Z" fill="#BFBFBF"/>
<path d="M38.4655 26.9176C38.237 32.4506 38.1936 37.9827 38.3172 43.5189C38.3768 46.1828 38.4457 48.8463 38.5399 51.5092C38.5879 52.867 38.6358 54.2242 38.6779 55.5822C38.6999 56.2929 38.8604 56.6631 38.0188 56.7561C37.8345 51.0078 37.5867 45.26 37.4839 39.5093C37.4357 36.8098 37.3862 34.08 37.5451 31.3834C37.6169 30.1665 37.8228 28.9403 37.6887 27.7201C37.5966 26.8829 37.4771 26.2675 38.3267 25.8239C38.3779 26.1869 38.4499 26.5501 38.4655 26.9176Z" fill="#BFBFBF"/>
<path d="M50.5734 26.2089C50.3669 31.9389 50.1326 37.6596 50.1956 43.3948C50.2268 46.2237 50.1435 49.0518 50.1195 51.8805C50.1084 53.1714 50.1129 54.4625 50.1567 55.7525C50.1658 56.0196 50.2961 56.4188 50.1302 56.6623C49.9364 56.9469 49.5517 56.7269 49.4764 56.478C49.2382 55.6914 49.4509 54.5668 49.4352 53.7555C49.4071 52.3331 49.3812 50.9106 49.3594 49.4882C49.3158 46.6433 49.2896 43.7979 49.2993 40.9526C49.3092 38.1042 49.3372 35.2541 49.4132 32.4067C49.4655 30.4361 48.9772 27.4351 50.4346 25.978C50.478 26.0438 50.5512 26.1441 50.5734 26.2089Z" fill="#BFBFBF"/>
<path d="M31.9956 33.5568C32.025 38.4269 31.9804 43.298 32.1091 48.1672C32.1749 50.656 32.344 53.1424 32.3808 55.6317C32.3871 56.0605 32.6738 56.861 31.9668 56.7024C31.6301 56.6269 31.7214 53.8484 31.7041 53.4404C31.5028 48.7065 31.2437 43.9719 31.1857 39.2333C31.1567 36.8546 31.0929 34.4817 31.2361 32.1059C31.3483 30.2459 30.9364 27.888 32.1498 26.3784C31.983 28.768 32.1515 31.1666 31.9956 33.5568Z" fill="#BFBFBF"/>
<path d="M30.9018 45.8959C30.9323 47.8912 31.0053 49.8853 31.0888 51.8788C31.1464 53.2524 31.5674 55.0509 31.3033 56.4161C31.1618 57.147 29.3586 57.1419 29.3411 56.3974C29.2915 54.2852 29.1652 52.1786 29.0727 50.0681C28.8905 45.9117 28.8676 41.7506 28.867 37.5907C28.8668 35.7601 28.7611 33.9103 28.8059 32.0834C28.8298 31.1016 29.36 30.6327 29.8116 29.8273C30.259 29.0288 30.5022 28.1384 30.9021 27.3177C30.689 33.5081 30.6873 39.7057 30.9018 45.8959Z" fill="#E3E3E3"/>
<path d="M56.4428 31.3694C56.5045 35.6175 56.2887 39.835 56.2887 44.0752V50.3458V53.5467C56.2887 54.0625 56.6169 56.0474 56.1696 56.3992C55.375 57.0239 55.6767 54.6676 55.6798 54.3005C55.69 53.2267 55.6978 52.1529 55.705 51.0788C55.7194 48.9309 55.7308 46.7829 55.7497 44.635C55.789 40.1608 55.8605 35.6858 56.0576 31.2155L56.4428 31.3694Z" fill="#BFBFBF"/>
<path d="M28.3909 47.0667C28.5433 50.3213 28.7387 53.5749 28.7914 56.8332C28.3241 56.8075 27.8568 56.7816 27.3894 56.7561C28.1896 56.2086 27.4585 53.2557 27.4297 52.4074C27.3351 49.6311 27.2503 46.8549 27.1779 44.0779C27.1056 41.3162 26.9579 38.5589 26.8536 35.7985C26.83 35.1766 26.3621 32.8267 26.7304 32.3794C27.1002 31.93 27.8254 31.7081 28.3292 31.4467L28.3677 39.2567C28.3806 41.8583 28.6305 44.4686 28.3909 47.0667Z" fill="#BFBFBF"/>
<path d="M58.2294 32.6171C58.3163 36.8338 58.0911 41.0476 57.9739 45.2614C57.9163 47.3345 57.9044 49.4082 57.8863 51.4819C57.8805 52.1638 58.203 56.3855 57.5028 56.4482C56.3523 56.5508 56.8467 52.474 56.8506 51.7708C56.8629 49.6589 56.8763 47.5474 56.8858 45.4356C56.9061 40.9316 56.9086 36.4272 56.997 31.924C57.4735 32.0368 57.7543 32.5124 58.2294 32.6171Z" fill="#E3E3E3"/>
<path d="M26.2033 32.5402C26.3746 36.9013 26.5762 41.2611 26.737 45.6226C26.8211 47.9048 26.8931 50.187 26.9398 52.4701C26.957 53.3104 26.4624 56.1126 27.1586 56.7561C26.2531 56.7561 26.4246 56.319 26.3802 55.5165C26.2973 54.0171 26.231 52.5141 26.2185 51.0125C26.1947 48.1148 26.2062 45.2104 26.0739 42.3155C26.0495 41.7835 25.1174 32.4744 26.2033 32.5402Z" fill="#E3E3E3"/>
<path d="M61.3568 56.9101C61.851 58.6755 60.8941 58.9585 59.4374 59.0665C57.5817 59.2041 55.7098 59.2084 53.8498 59.2164C49.8961 59.2335 45.9421 59.2236 41.9884 59.2423C38.2174 59.26 34.4801 59.4934 30.7143 59.6119C28.9419 59.6678 27.1368 59.6785 25.3738 59.4659C24.6008 59.3727 24.397 59.4943 24.3608 58.723C24.34 58.278 24.3571 57.8327 24.3396 57.3879C30.5471 57.3879 36.7638 57.0103 42.9684 57.1347C46.1241 57.198 49.2736 57.2071 52.4293 57.2186C55.4124 57.2291 58.3692 56.9101 61.3568 56.9101Z" fill="#BFBFBF"/>
<path d="M64.4837 60.6532C57.1534 61.0801 49.7555 60.5567 42.4391 61.1245C35.3297 61.6761 28.1168 61.5422 20.9813 61.3619C23.8695 59.5358 27.0889 60.1063 30.3071 60.1795C34.2173 60.2684 38.1372 59.7343 42.0537 59.7141C46.0396 59.6936 50.0249 59.8025 54.011 59.7783C55.9609 59.7664 57.8999 59.6816 59.8448 59.5391C61.603 59.4106 62.8576 60.1544 64.4837 60.6532Z" fill="#E3E3E3"/>
<path d="M65.6546 64.8743C65.4053 64.8918 65.3549 65.197 65.111 65.1978L63.8326 65.2021L60.3724 65.2139L53.4508 65.2375C48.7887 65.2532 44.1286 65.2655 39.4679 65.3879C34.7981 65.5106 30.1292 65.6493 25.4576 65.7001C24.1611 65.7142 22.8638 65.734 21.5671 65.7363C20.9196 65.7373 20.6774 65.9415 20.6632 65.2293C20.6408 64.0992 20.6186 62.9695 20.5963 61.8396C25.133 62.2871 29.7553 62.0284 34.3086 62.0551C38.9449 62.0825 43.5821 61.5805 48.2194 61.4653C52.8451 61.3503 57.4711 61.2837 62.0979 61.2847C62.8158 61.2849 65.4553 60.5992 65.6784 61.4994C65.9483 62.5896 65.6546 63.7701 65.6546 64.8743Z" fill="#BFBFBF"/>
</g>
<defs>
<linearGradient id="paint0_linear_1_2" x1="41.96" y1="2.04" x2="41.96" y2="82.04" gradientUnits="userSpaceOnUse">
<stop stop-color="#CA473F"/>
<stop offset="1" stop-color="#CA473F"/>
</linearGradient>
<clipPath id="clip0_1_2">
<rect width="54" height="49.3416" fill="white" transform="translate(16 17)"/>
</clipPath>
</defs>
</svg>
